<?xml version="1.0" encoding="UTF-8"?>
<svg width="54px" height="108px" viewBox="0 0 54 108" version="1.1" xmlns="http://www.w3.org/2000/svg" xmlns:xlink="http://www.w3.org/1999/xlink">
    <!-- Generator: Sketch 46.2 (44496) - http://www.bohemiancoding.com/sketch -->
    <title>x</title>
    <desc>Created with Sketch.</desc>
    <defs>
        <linearGradient x1="50%" y1="0%" x2="50%" y2="100%" id="linearGradient-1">
            <stop stop-color="#F8EAE0" offset="0%"></stop>
            <stop stop-color="#F4D9D4" offset="26.0024713%"></stop>
            <stop stop-color="#C48F8B" offset="100%"></stop>
        </linearGradient>
    </defs>
    <g id="Website" stroke="none" stroke-width="1" fill="none" fill-rule="evenodd">
        <g id="Desktop-HD-Copy-3" transform="translate(-117.000000, -2323.000000)" fill="url(#linearGradient-1)">
            <path d="M168.448177,2337.31891 C168.35214,2337.41495 168.16007,2337.46297 167.871959,2337.46297 C168.016014,2337.58301 168.064031,2337.60702 168.160068,2337.60702 C167.391774,2338.18324 166.695519,2338.80747 166.07128,2339.47973 C165.447041,2340.15198 164.894839,2340.96828 164.414655,2341.92865 C164.510692,2342.12072 164.630736,2342.14473 164.774791,2342.00068 C164.918846,2341.85662 165.03889,2341.88063 165.134927,2342.0727 C165.134927,2341.88063 165.182944,2341.68856 165.278981,2341.49649 C165.471055,2341.97667 165.302993,2342.31279 164.774791,2342.50487 C164.246589,2342.69694 163.886457,2342.93703 163.694383,2343.22514 C163.886457,2342.84099 163.982492,2342.69694 163.982492,2342.79298 C163.982492,2342.6009 163.886457,2342.50487 163.694383,2342.50487 C163.50231,2342.69694 163.310239,2342.96104 163.118166,2343.29717 C162.926092,2343.6333 162.926092,2343.89739 163.118166,2344.08947 C163.022129,2344.47361 162.80605,2344.76172 162.469921,2344.95379 C162.133793,2345.14587 162.013749,2345.43397 162.109785,2345.81812 C161.917712,2345.72208 161.773659,2345.72208 161.677622,2345.81812 C161.581585,2345.91415 161.629603,2346.01019 161.821677,2346.10623 C161.533566,2346.39434 161.245461,2346.58641 160.95735,2346.68244 C160.189057,2348.60318 159.204695,2350.23578 158.004236,2351.58029 C156.803777,2352.92481 155.819416,2354.55741 155.051122,2356.47814 C154.474902,2356.67021 154.138778,2357.12638 154.042741,2357.84666 C153.946705,2358.56693 153.658599,2359.16715 153.178415,2359.64734 C152.314085,2360.12752 151.737873,2360.87179 151.449763,2361.88018 C151.161653,2362.88856 150.633459,2363.68086 149.865165,2364.25708 C149.961202,2364.44915 149.913184,2364.78527 149.721111,2365.26546 C149.336964,2365.26546 149.048858,2365.31347 148.856785,2365.40951 C148.856785,2365.60158 148.904802,2365.86568 149.000839,2366.20181 C149.096876,2366.53794 148.904805,2366.65798 148.424621,2366.56195 C148.616695,2367.04213 148.544668,2367.52231 148.20854,2368.00249 C147.872411,2368.48267 147.800385,2368.91483 147.992458,2369.29898 C147.800385,2369.49105 147.656332,2369.68312 147.560295,2369.8752 C147.464259,2370.06727 147.272188,2370.21132 146.984078,2370.30736 C147.464261,2372.5162 148.160517,2374.43691 149.072866,2376.06953 C149.985215,2377.70216 150.585435,2379.67088 150.873545,2381.97576 C151.353729,2383.1282 151.857914,2384.30463 152.386116,2385.50509 C152.914318,2386.70555 153.27445,2387.93 153.466524,2389.17848 C153.562561,2389.27452 153.610578,2389.37055 153.610578,2389.46659 C153.610578,2389.56262 153.706614,2389.65866 153.898687,2389.7547 C153.80265,2390.04281 153.754633,2390.13884 153.754633,2390.33091 C154.330853,2391.77146 154.907065,2393.38006 155.483285,2395.15674 C156.059505,2396.93341 156.587699,2398.63804 157.067883,2400.27066 C157.16392,2400.3667 157.307972,2400.41472 157.500046,2400.41472 C158.076266,2402.14338 158.460407,2403.63193 158.652481,2404.8804 C158.844554,2406.12888 159.276713,2407.56941 159.94897,2409.20203 L159.660861,2409.20203 C159.852935,2409.68222 160.14104,2410.21041 160.525187,2410.78663 C160.909334,2411.36285 161.005369,2411.84303 160.813296,2412.22718 C161.197443,2412.41925 161.46154,2412.65934 161.605595,2412.94745 C161.74965,2413.23556 161.965729,2413.47565 162.25384,2413.66772 C162.157803,2414.82016 162.469918,2415.90056 163.190193,2416.90894 C163.910468,2417.91733 164.366636,2418.90169 164.558709,2419.86206 C164.654746,2419.95809 164.798799,2420.00611 164.990872,2420.00611 C165.182946,2421.06252 165.471052,2421.99886 165.855199,2422.81517 C166.239345,2423.63148 166.671504,2424.37576 167.151688,2425.04801 C167.631871,2424.66387 167.871959,2423.99162 167.871959,2423.03125 C168.064033,2421.49467 167.775924,2430.90622 167.583851,2430.81019 C167.391777,2430.71415 162.013751,2430.71415 161.533568,2430.81019 C161.533568,2430.52208 161.365506,2430.25798 161.029378,2430.01789 C160.693249,2429.7778 160.285099,2429.53771 159.804916,2429.29762 C159.324732,2429.05753 158.844556,2428.84145 158.364372,2428.64937 C157.884188,2428.4573 157.548065,2428.21721 157.355992,2427.9291 C157.452028,2427.83306 157.596081,2427.78505 157.788155,2427.78505 C157.596081,2427.01675 157.139914,2426.39252 156.419638,2425.91234 C155.699363,2425.43216 155.483283,2424.80793 155.771394,2424.03963 C154.42688,2422.02286 153.274456,2419.88608 152.314089,2417.62921 C151.353722,2415.37235 150.465396,2413.06751 149.649083,2410.71461 C148.832771,2408.36171 148.064489,2405.93682 147.344214,2403.43986 C146.623938,2400.94291 145.831647,2398.39797 144.967317,2395.80498 L144.679208,2396.09309 C144.583171,2395.99705 144.511145,2395.87701 144.463127,2395.73295 C144.415108,2395.5889 144.295064,2395.46885 144.102991,2395.37282 C144.199027,2395.27678 144.34308,2395.22876 144.535154,2395.22876 C143.574787,2392.63577 142.566416,2390.11484 141.510012,2387.66591 C140.453608,2385.21697 139.349203,2382.79208 138.196762,2380.39116 C138.004689,2381.06342 137.860636,2381.71166 137.764599,2382.3359 C137.668562,2382.96014 137.188386,2383.51234 136.324056,2383.99252 C136.420092,2384.28063 136.46811,2384.44869 136.46811,2384.49671 L136.46811,2385.0009 C135.89189,2385.28901 135.651801,2385.7932 135.747838,2386.51347 C135.843875,2387.23375 135.555769,2387.68992 134.883512,2387.88199 C134.979549,2387.97803 134.907522,2388.19411 134.66743,2388.53023 C134.427339,2388.86636 134.163242,2388.93839 133.875131,2388.74632 C134.259278,2389.2265 134.187252,2389.61064 133.65905,2389.89875 C133.130848,2390.18686 132.962786,2390.61902 133.15486,2391.19524 C132.674676,2391.19524 132.482606,2391.31528 132.578642,2391.55538 C132.674679,2391.79547 132.482608,2391.91551 132.002425,2391.91551 L132.290534,2392.20362 C131.81035,2392.6838 131.450218,2393.16398 131.210126,2393.64416 C130.970034,2394.12435 130.465849,2394.50849 129.697555,2394.7966 C129.409445,2395.27678 129.025304,2395.73295 128.54512,2396.16512 C128.064937,2396.59728 127.728813,2397.05345 127.53674,2397.53363 C126.864483,2397.62967 126.192236,2397.84575 125.519979,2398.18188 C124.847722,2398.51801 124.127457,2398.63805 123.359164,2398.54201 C123.4552,2398.34994 123.407183,2398.20589 123.215109,2398.10985 C123.023036,2398.01381 122.975018,2397.86976 123.071055,2397.67769 L122.638892,2397.67769 C122.446818,2397.67769 122.398801,2397.77372 122.494837,2397.9658 C121.726544,2397.48561 121.102314,2396.98143 120.622131,2396.45322 C120.141947,2395.92502 119.517718,2395.42084 118.749424,2394.94065 C118.749424,2394.74858 118.62938,2394.55651 118.389288,2394.36444 C118.149196,2394.17236 118.125188,2393.98029 118.317261,2393.78822 C118.221224,2393.69218 118.10118,2393.64416 117.957125,2393.64416 C117.81307,2393.64416 117.645008,2393.54813 117.452935,2393.35606 C117.837082,2392.97191 118.07717,2392.53975 118.173207,2392.05957 C118.269243,2391.57938 118.557349,2391.29128 119.037533,2391.19524 C118.821451,2391.02718 118.797442,2391.00317 118.893478,2390.90713 C119.373662,2390.71506 119.709786,2390.35493 119.901859,2389.82672 C120.093932,2389.29852 120.430056,2388.93839 120.910239,2388.74632 C121.006276,2388.55424 121.006276,2388.4342 120.910239,2388.38618 C120.814203,2388.33816 120.814203,2388.21812 120.910239,2388.02604 C121.19835,2388.21812 121.438438,2388.12208 121.630511,2387.73794 C121.822585,2387.35379 121.822585,2387.06568 121.630511,2386.87361 C121.822585,2387.06568 121.990646,2387.08969 122.134701,2386.94564 C122.278757,2386.80158 122.302765,2386.63352 122.206729,2386.44145 C122.494839,2386.34541 122.590874,2386.24937 122.494837,2386.15334 C122.398801,2386.0573 122.350783,2385.91325 122.350783,2385.72117 L122.638892,2385.57712 C123.167093,2385.19297 123.311146,2384.90487 123.215109,2384.71279 C123.599256,2384.52072 123.911371,2384.20861 124.151462,2383.77644 C124.391554,2383.34428 124.415563,2382.88811 124.22349,2382.40792 C124.5116,2382.40792 124.559617,2382.50396 124.367544,2382.69603 C125.135838,2381.63963 125.90412,2380.65527 126.672414,2379.74292 C127.440707,2378.83057 128.064937,2377.79819 128.54512,2376.64575 C129.025304,2376.64575 129.31341,2376.69377 129.409446,2376.7898 L129.409446,2376.35764 C129.409446,2376.2616 129.313411,2376.30962 129.121338,2376.5017 C128.929264,2376.30962 128.929264,2376.09354 129.121338,2375.85345 C129.313411,2375.61336 129.505482,2375.4453 129.697555,2375.34926 C129.793592,2375.4453 129.865618,2375.46931 129.913637,2375.42129 C129.961655,2375.37327 129.889629,2375.34926 129.697555,2375.34926 C129.697555,2375.15719 129.721564,2375.06115 129.769582,2375.06115 C130.033683,2374.72502 130.129718,2374.67701 130.129718,2374.77304 C130.129718,2374.86908 130.225754,2374.96512 130.417827,2375.06115 C130.513864,2374.86908 130.513864,2374.74903 130.417827,2374.70102 C130.32179,2374.653 130.273773,2374.53295 130.273773,2374.34088 C131.042066,2373.57259 131.666296,2372.75629 132.146479,2371.89196 C132.626663,2371.02763 133.202874,2370.25934 133.875131,2369.58709 C132.242507,2364.68921 130.249775,2360.15155 127.896876,2355.97395 C125.543976,2351.79635 122.975032,2347.78688 120.189968,2343.94541 L119.325642,2343.94541 C118.941495,2343.36919 118.509336,2342.91302 118.029152,2342.5769 C117.548969,2342.24077 117.356898,2341.68856 117.452935,2340.92027 C117.645008,2339.86387 118.245229,2339.28765 119.253614,2339.19162 C120.262,2339.09558 121.150326,2338.80748 121.91862,2338.32729 C123.647281,2338.23125 125.399925,2338.0872 127.176604,2337.89513 C128.953283,2337.70306 130.561874,2337.79909 132.002425,2338.18324 C134.211269,2341.16038 136.204001,2344.35355 137.980681,2347.76285 C139.75736,2351.17216 141.317933,2354.74947 142.662447,2358.4949 C143.238668,2357.72661 143.886906,2356.95833 144.607181,2356.19003 C145.327456,2355.42174 145.735606,2354.5094 145.831643,2353.453 C146.21579,2353.16489 146.503896,2352.87678 146.695969,2352.58867 L147.272187,2352.01246 C147.46426,2351.82038 147.608313,2351.58029 147.70435,2351.29218 C148.088497,2351.19615 148.280567,2350.90804 148.280567,2350.42786 C148.760751,2350.33182 149.000839,2350.04372 149.000839,2349.56353 C149.096876,2349.56353 149.144893,2349.51551 149.144893,2349.41948 C149.433003,2349.27542 149.577056,2349.08335 149.577056,2348.69921 C150.537423,2347.54676 151.401741,2346.39434 152.170035,2345.2419 C152.458145,2345.14586 152.626207,2345.00181 152.674225,2344.80974 C152.722243,2344.61766 152.842287,2344.47361 153.034361,2344.37757 L153.034361,2344.80974 C153.322471,2344.61766 153.418506,2344.47361 153.32247,2344.37757 C153.338475,2344.28154 153.242439,2344.28154 153.034361,2344.37757 C153.130398,2343.99343 153.298459,2343.77735 153.538551,2343.72933 C153.778643,2343.68131 153.994722,2343.6573 154.186796,2343.6573 C154.186796,2343.56127 153.994725,2343.51325 153.610578,2343.51325 L153.898687,2343.22514 C153.994724,2343.32118 154.138777,2343.36919 154.33085,2343.36919 C154.33085,2343.08108 154.306841,2342.91302 154.258823,2342.865 C154.210804,2342.81699 154.234813,2342.69694 154.33085,2342.50487 C154.61896,2342.21676 154.883057,2342.0727 155.123149,2342.0727 C155.363241,2342.0727 155.531303,2341.83262 155.627339,2341.35243 C155.819413,2341.35243 155.915448,2341.30442 155.915448,2341.20838 C156.059502,2340.92027 155.963467,2340.82423 155.771394,2340.92027 C156.15554,2340.34405 156.443646,2340.05594 156.63572,2340.05594 C156.443646,2340.24802 156.443646,2340.39207 156.63572,2340.48811 C157.404013,2340.29603 157.980225,2339.62379 158.364372,2338.75945 C158.172299,2338.66342 158.100272,2338.56738 158.14829,2338.47135 C158.196309,2338.37531 158.1723,2338.23126 158.076263,2338.03918 C158.46041,2338.13522 158.628472,2338.03918 158.580454,2337.75107 C158.532435,2337.46296 158.508426,2337.22288 158.508426,2337.0308 C158.98861,2337.0308 159.228698,2336.83873 159.228698,2336.45459 C159.708882,2335.68629 160.237076,2335.11008 160.813296,2334.72593 C161.389516,2334.34179 161.821675,2333.76557 162.109785,2332.99728 C162.301859,2332.99728 162.373885,2332.97327 162.325867,2332.92525 C162.277848,2332.87723 162.205822,2332.85323 162.109785,2332.85323 C162.493932,2332.37304 162.9501,2331.86886 163.478302,2331.34066 C164.006504,2330.81245 164.030512,2330.30827 163.550329,2329.82808 C163.838439,2330.02016 163.982492,2329.97214 163.982492,2329.68403 C164.270602,2329.58799 164.414655,2329.44394 164.414655,2329.25187 C164.414655,2329.05979 164.462673,2328.86772 164.558709,2328.67565 C164.750783,2328.86772 164.870827,2328.91574 164.918845,2328.8197 C164.966864,2328.72367 164.990872,2328.60362 164.990872,2328.45957 C164.990872,2328.31551 165.03889,2328.17146 165.134927,2328.02741 C165.230963,2327.88335 165.375016,2327.85934 165.56709,2327.95538 C165.663127,2328.14745 165.519074,2328.24349 165.134927,2328.24349 C165.327,2328.43556 165.471053,2328.5316 165.56709,2328.5316 L165.711144,2328.67565 C165.903218,2328.48358 166.095288,2328.24349 166.287362,2327.95538 C166.479435,2327.66727 166.479435,2327.42718 166.287362,2327.23511 C166.479435,2326.85096 166.57547,2326.56285 166.57547,2326.37078 C166.959617,2326.56285 167.151688,2326.51484 167.151688,2326.22673 C167.343761,2326.03465 167.487814,2325.81857 167.583851,2325.57848 C167.679887,2325.33839 167.871958,2325.21835 168.160068,2325.21835 C168.160068,2324.93024 168.064033,2324.78618 167.871959,2324.78618 C168.16007,2324.59411 168.400158,2324.42605 168.592231,2324.28199 C168.784305,2324.13794 169.024393,2324.01789 169.312503,2323.92186 C169.69665,2325.17033 170.032773,2326.39478 170.320884,2327.59524 C170.608994,2328.7957 170.320888,2329.78006 169.456557,2330.54836 L170.032775,2331.9889 C170.224848,2332.46908 170.080795,2332.99728 169.600612,2333.5735 C169.600612,2333.86161 169.672638,2334.00566 169.816693,2334.00566 C169.960748,2334.00566 170.032775,2334.05368 170.032775,2334.14972 L168.448177,2337.31891 Z M166.73553,2327.23511 L166.719525,2327.23511 L166.57547,2327.37916 C166.639494,2327.31514 166.692848,2327.26712 166.73553,2327.23511 L166.73553,2327.23511 Z M164.846818,2329.68403 L164.990872,2329.53998 C164.990872,2329.25187 164.894837,2329.15583 164.702764,2329.25187 C164.7988,2329.3479 164.822809,2329.44394 164.774791,2329.53998 C164.726772,2329.63601 164.750781,2329.68403 164.846818,2329.68403 Z M166.719525,2329.68403 C166.911598,2329.39592 167.007633,2329.37191 167.007633,2329.612 C167.007633,2329.85209 166.911598,2329.8761 166.719525,2329.68403 Z M164.702764,2329.97214 C164.51069,2330.16421 164.390646,2330.1402 164.342628,2329.90011 C164.294609,2329.66002 164.414654,2329.68403 164.702764,2329.97214 Z M166.287362,2330.4043 C165.999251,2330.30827 165.927225,2330.33227 166.07128,2330.47633 C166.215335,2330.62038 166.287362,2330.59638 166.287362,2330.4043 L166.431416,2330.4043 L166.57547,2330.26025 L166.57547,2329.97214 C166.383397,2329.8761 166.31137,2329.8761 166.359389,2329.97214 C166.407407,2330.06818 166.383398,2330.21223 166.287362,2330.4043 Z M165.56709,2331.26863 C165.759163,2331.36466 165.903216,2331.29264 165.999253,2331.05255 C166.09529,2330.81245 166.047272,2330.69241 165.855199,2330.69241 C166.047272,2330.88448 166.023263,2330.95651 165.783171,2330.90849 C165.54308,2330.86047 165.471053,2330.98052 165.56709,2331.26863 Z M165.56709,2334.58188 C165.663127,2335.06206 165.423038,2335.59026 164.846818,2336.16648 C165.903222,2336.16648 166.431416,2335.59026 166.431416,2334.43782 C166.239342,2334.43782 166.119298,2334.46183 166.07128,2334.50985 C166.023262,2334.55787 165.8552,2334.58188 165.56709,2334.58188 Z M167.295742,2335.01404 C167.583852,2335.01404 167.727905,2334.91801 167.727905,2334.72593 C167.631868,2334.72593 167.559842,2334.6299 167.511824,2334.43782 C167.463805,2334.24575 167.391779,2334.29377 167.295742,2334.58188 C167.487816,2334.58188 167.535833,2334.60589 167.439796,2334.65391 C167.34376,2334.70192 167.295742,2334.82197 167.295742,2335.01404 Z M164.126546,2335.4462 C164.31862,2335.15809 164.414655,2335.15809 164.414655,2335.4462 C164.414655,2335.73431 164.31862,2335.73431 164.126546,2335.4462 Z M166.719525,2335.87837 C166.911598,2335.78233 167.055651,2335.6863 167.151688,2335.59026 C167.247724,2335.49422 167.199707,2335.39819 167.007633,2335.30215 C166.719523,2335.49422 166.479435,2335.68629 166.287362,2335.87837 C166.095288,2336.07044 165.807182,2336.26251 165.423035,2336.45459 C165.615109,2336.7427 165.567091,2336.98278 165.278981,2337.17486 C164.990871,2337.36693 164.846818,2337.65504 164.846818,2338.03918 C165.327002,2337.94315 165.615107,2337.77508 165.711144,2337.53499 C165.807181,2337.2949 165.855199,2336.98279 165.855199,2336.59864 C166.431419,2336.59864 166.719525,2336.35855 166.719525,2335.87837 Z M164.126546,2336.16648 C164.31862,2335.87837 164.414655,2335.85436 164.414655,2336.09445 C164.414655,2336.33454 164.31862,2336.35855 164.126546,2336.16648 Z M159.516807,2336.59864 C159.516807,2336.5026 159.564824,2336.45459 159.660861,2336.45459 C159.756898,2336.45459 159.70888,2336.5026 159.516807,2336.59864 Z M154.474904,2349.41948 L154.042741,2349.41948 C154.042741,2349.61155 154.090759,2349.68358 154.186796,2349.63556 C154.282832,2349.58754 154.33085,2349.65957 154.33085,2349.85164 C154.138777,2349.94768 154.06675,2350.13975 154.114768,2350.42786 C154.162787,2350.71597 154.042743,2350.86002 153.754633,2350.86002 C153.754633,2350.66795 153.80265,2350.52389 153.898687,2350.42786 C153.994724,2350.33182 153.994724,2350.18777 153.898687,2349.99569 C153.51454,2350.47588 153.226434,2351.02808 153.034361,2351.65232 C152.842287,2352.27656 152.842287,2352.9248 153.034361,2353.59705 C152.842287,2353.59705 152.746252,2353.74111 152.746252,2354.02922 C152.746252,2354.31733 152.602199,2354.5094 152.314089,2354.60543 C152.410126,2354.22129 152.31409,2354.02922 152.02598,2354.02922 C152.122017,2354.31733 152.049991,2354.43737 151.809899,2354.38935 C151.569807,2354.34133 151.353728,2354.41336 151.161654,2354.60543 L151.161654,2355.46976 L151.0176,2355.46976 C151.113637,2355.5658 151.065619,2355.61381 150.873545,2355.61381 L150.873545,2355.90192 C151.065619,2355.90192 151.161654,2355.75787 151.161654,2355.46976 C151.449764,2355.5658 151.641835,2355.5658 151.737872,2355.46976 L152.02598,2355.18165 C152.218054,2355.37372 152.338098,2355.34972 152.386116,2355.10962 C152.434135,2354.86953 152.31409,2354.89354 152.02598,2355.18165 C152.02598,2354.89354 152.122016,2354.74949 152.314089,2354.74949 C152.506162,2354.94156 152.602198,2355.08561 152.602198,2355.18165 C152.986345,2354.98958 153.250442,2354.70147 153.394497,2354.31733 C153.538552,2353.93318 153.514543,2353.54904 153.32247,2353.16489 C153.514543,2353.16489 153.610578,2353.11687 153.610578,2353.02084 C153.610578,2352.9248 153.706614,2352.87678 153.898687,2352.87678 L153.898687,2353.453 C154.186797,2353.06885 154.570938,2352.78075 155.051122,2352.58867 C155.531305,2352.3966 155.675358,2352.06048 155.483285,2351.58029 C155.963468,2351.48426 156.107521,2351.29219 155.915448,2351.00407 C156.491668,2351.00407 156.779774,2350.90804 156.779774,2350.71597 C156.587701,2350.52389 156.635718,2350.35583 156.923828,2350.21178 C157.211939,2350.06772 157.211939,2349.89966 156.923828,2349.70759 C157.404012,2349.61155 157.6441,2349.34745 157.6441,2348.91529 C157.6441,2348.48312 157.692118,2348.07497 157.788155,2347.69082 C158.748522,2347.40271 159.39676,2346.87452 159.732888,2346.10623 C160.069017,2345.33793 160.429149,2344.52163 160.813296,2343.6573 C161.005369,2343.56127 161.053387,2343.51325 160.95735,2343.51325 C160.861314,2343.51325 160.813296,2343.56127 160.813296,2343.6573 C160.621223,2343.36919 160.693249,2343.1291 161.029378,2342.93703 C161.365506,2342.74496 161.437533,2342.40883 161.245459,2341.92865 C161.725643,2341.44847 162.229828,2340.92027 162.75803,2340.34405 C163.286232,2339.76783 163.454294,2339.04757 163.26222,2338.18324 C163.454294,2338.0872 163.52632,2337.94315 163.478302,2337.75107 C163.430283,2337.559 163.50231,2337.51098 163.694383,2337.60702 C163.598346,2337.70306 163.550329,2337.94314 163.550329,2338.32729 C163.550329,2338.71144 163.646364,2338.90351 163.838438,2338.90351 C163.838438,2338.51936 163.958482,2338.15923 164.198573,2337.8231 C164.438665,2337.48697 164.462674,2337.12684 164.270601,2336.74269 C163.98249,2336.83873 163.838438,2336.91076 163.838438,2336.95878 C163.838438,2337.00679 163.694385,2336.93477 163.406274,2336.74269 C163.214201,2336.74269 163.166183,2336.88675 163.26222,2337.17486 C163.358257,2337.46297 163.262222,2337.559 162.974111,2337.46297 C163.166185,2338.03919 163.07015,2338.44734 162.686003,2338.68743 C162.301856,2338.92752 161.821679,2339.1436 161.245459,2339.33567 C161.341496,2339.62378 161.341496,2339.86387 161.245459,2340.05594 C161.149422,2340.24802 161.149422,2340.44009 161.245459,2340.63216 C160.285092,2341.01631 159.636854,2341.64054 159.300725,2342.50487 C158.964597,2343.3692 158.364376,2344.08946 157.500046,2344.66568 C157.596083,2344.95379 157.6441,2345.12186 157.6441,2345.16987 C157.6441,2345.21789 157.45203,2345.19388 157.067883,2345.09785 C157.16392,2345.57803 157.067884,2345.91415 156.779774,2346.10623 C156.491664,2346.2983 156.107523,2346.58641 155.627339,2346.97055 C155.723376,2347.16263 155.699367,2347.42672 155.555312,2347.76285 C155.411257,2348.09898 155.195178,2348.17101 154.907067,2347.97893 C154.907067,2348.17101 154.955085,2348.26704 155.051122,2348.26704 C155.147159,2348.26704 155.147159,2348.36308 155.051122,2348.55515 C154.666975,2348.36308 154.522922,2348.38709 154.618959,2348.62718 C154.714995,2348.86727 154.570943,2348.89128 154.186796,2348.69921 C154.186796,2348.98732 154.282831,2349.2274 154.474904,2349.41948 Z M167.295742,2337.17486 C167.391779,2336.98278 167.511823,2336.95877 167.655878,2337.10283 C167.799933,2337.24688 167.679889,2337.27089 167.295742,2337.17486 Z M158.812541,2337.31891 L158.796535,2337.31891 L158.652481,2337.46297 C158.716505,2337.39894 158.769858,2337.35092 158.812541,2337.31891 L158.812541,2337.31891 Z M166.879585,2337.31891 L166.863579,2337.31891 L166.719525,2337.46297 C166.783549,2337.39894 166.836902,2337.35092 166.879585,2337.31891 L166.879585,2337.31891 Z M161.965731,2344.95379 C161.965731,2344.85776 162.013749,2344.80974 162.109785,2344.80974 C162.205822,2344.80974 162.157804,2344.85776 161.965731,2344.95379 Z M151.17766,2347.11461 L151.161654,2347.11461 L151.0176,2347.25866 C151.081624,2347.19464 151.134977,2347.14662 151.17766,2347.11461 L151.17766,2347.11461 Z M150.313334,2348.4111 L150.297328,2348.4111 L150.153274,2348.55515 C150.217298,2348.49113 150.270651,2348.44311 150.313334,2348.4111 L150.313334,2348.4111 Z M151.161654,2356.19003 C151.353728,2355.90192 151.449763,2355.90192 151.449763,2356.19003 C151.449763,2356.47814 151.353728,2356.47814 151.161654,2356.19003 Z M150.297328,2357.34247 C150.585438,2357.34247 150.777509,2357.19841 150.873545,2356.9103 C150.969582,2356.62219 150.921565,2356.38211 150.729491,2356.19003 C150.633454,2356.38211 150.537419,2356.55017 150.441382,2356.69422 C150.345346,2356.83828 150.297328,2357.05436 150.297328,2357.34247 Z M149.721111,2358.63896 C149.721111,2358.54292 149.625075,2358.59094 149.433002,2358.78301 C149.625075,2359.07112 149.625075,2359.31121 149.433002,2359.50328 C149.721112,2359.31121 149.985209,2359.04711 150.225301,2358.71098 C150.465393,2358.37485 150.489402,2358.11076 150.297328,2357.91868 C150.393365,2357.82265 150.441382,2357.67859 150.441382,2357.48652 C150.249309,2357.58256 150.03323,2357.72661 149.793138,2357.91868 C149.553046,2358.11076 149.529037,2358.35085 149.721111,2358.63896 Z M150.585437,2357.63058 C150.77751,2357.34247 150.873545,2357.34247 150.873545,2357.63058 C150.873545,2357.91869 150.77751,2357.91869 150.585437,2357.63058 Z M167.151688,2326.22673 C166.863578,2326.32276 166.791551,2326.29875 166.935606,2326.1547 C167.079661,2326.01064 167.151688,2326.03465 167.151688,2326.22673 Z M166.143307,2327.23511 C166.047271,2327.23511 165.999253,2327.25912 165.999253,2327.30713 C165.999253,2327.35515 165.903218,2327.37916 165.711144,2327.37916 C165.807181,2327.18709 165.951234,2327.09105 166.143307,2327.09105 L166.143307,2327.23511 Z M166.143307,2327.23511 L166.287362,2327.23511 C166.287362,2327.33114 166.239344,2327.33114 166.143307,2327.23511 Z M165.56709,2328.5316 C165.56709,2328.43556 165.615107,2328.38754 165.711144,2328.38754 C165.807181,2328.38754 165.759163,2328.43556 165.56709,2328.5316 Z M163.982492,2329.68403 C163.886455,2329.68403 163.862446,2329.63601 163.910465,2329.53998 C163.958483,2329.44394 163.982492,2329.49196 163.982492,2329.68403 Z M163.406274,2330.54836 C163.694385,2330.35628 163.718393,2330.35628 163.478302,2330.54836 C163.23821,2330.74043 163.214201,2330.74043 163.406274,2330.54836 Z M162.686003,2331.12457 C162.686003,2330.9325 162.710011,2330.83647 162.75803,2330.83647 C162.806048,2330.83647 162.830057,2330.78845 162.830057,2330.69241 C163.02213,2330.69241 163.118166,2330.71642 163.118166,2330.76444 C163.118166,2330.81246 163.166183,2330.83647 163.26222,2330.83647 C163.26222,2331.02854 163.214202,2331.14858 163.118166,2331.1966 C163.022129,2331.24462 162.974111,2331.36466 162.974111,2331.55674 C162.878075,2331.55674 162.854066,2331.48471 162.902084,2331.34066 C162.950103,2331.1966 162.878076,2331.12457 162.686003,2331.12457 Z M161.533568,2332.56512 C161.725641,2332.27701 161.821677,2332.27701 161.821677,2332.56512 C161.821677,2332.85323 161.725641,2332.85323 161.533568,2332.56512 Z M161.245459,2332.70917 C161.437533,2332.61314 161.509559,2332.68516 161.461541,2332.92525 C161.413522,2333.16535 161.293478,2333.23737 161.101405,2333.14133 L161.101405,2332.85323 L161.245459,2332.70917 Z M162.109785,2332.85323 L162.109785,2332.99728 C162.013749,2332.90124 162.013749,2332.85323 162.109785,2332.85323 Z M160.95735,2333.5735 C160.861314,2333.76557 160.789287,2334.00566 160.741269,2334.29377 C160.693251,2334.58188 160.477171,2334.72593 160.093024,2334.72593 C160.285098,2333.95764 160.573204,2333.5735 160.95735,2333.5735 Z M169.88872,2334.43782 C169.88872,2334.6299 169.792685,2334.72593 169.600612,2334.72593 L169.88872,2334.43782 Z M159.660861,2334.86999 L159.94897,2334.86999 C160.045007,2335.06206 159.900954,2335.1581 159.516807,2335.1581 C159.612844,2335.06206 159.660861,2334.96602 159.660861,2334.86999 Z" id="x"></path>
        </g>
    </g>
</svg>