<?xml version="1.0" encoding="UTF-8"?>
<svg width="171px" height="54px" viewBox="0 0 171 54" version="1.1" xmlns="http://www.w3.org/2000/svg" xmlns:xlink="http://www.w3.org/1999/xlink">
    <!-- Generator: Sketch 43.2 (39069) - http://www.bohemiancoding.com/sketch -->
    <title>n</title>
    <desc>Created with Sketch.</desc>
    <defs></defs>
    <g id="Website" stroke="none" stroke-width="1" fill="none" fill-rule="evenodd">
        <g id="Desktop-HD" transform="translate(-633.000000, -562.000000)" fill-rule="nonzero" fill="#C48F8B">
            <path d="M722.325505,653.121443 C722.397559,653.049389 722.469611,653.013363 722.541665,653.013363 C722.541665,652.869255 722.505639,652.815216 722.433585,652.851243 C722.361531,652.88727 722.325505,652.977335 722.325505,653.121443 L722.109345,653.121443 C721.100593,653.049389 719.965765,652.851244 718.704825,652.527003 C717.443885,652.202761 716.345083,651.824485 715.408385,651.392163 C715.048117,651.392163 714.72388,651.356136 714.435665,651.284083 C714.14745,651.212029 713.85924,651.10395 713.571025,650.959843 C712.418166,650.815735 711.553534,650.419446 710.977105,649.770963 C710.400675,649.122479 709.608097,648.654137 708.599345,648.365923 C708.239076,647.573332 707.716695,647.014924 707.032185,646.690683 C706.347675,646.366441 705.825293,645.84406 705.465025,645.123523 C705.392971,644.835308 705.410984,644.601137 705.519065,644.421003 C705.627145,644.240868 705.609132,644.114776 705.465025,644.042723 C705.320917,643.898615 705.230852,643.880602 705.194825,643.988683 C705.158798,644.096763 705.068732,644.07875 704.924625,643.934643 C704.780517,643.718481 704.726478,643.340205 704.762505,642.799803 C704.798532,642.2594 704.888597,641.737018 705.032705,641.232642 C705.176812,641.160589 705.266878,641.160589 705.302905,641.232642 C705.338932,641.304696 705.428997,641.376749 705.573105,641.448802 C705.428997,641.160588 705.374958,640.926417 705.410985,640.746282 C705.447012,640.566148 705.519064,640.40403 705.627145,640.259922 C705.735225,640.115815 705.843304,639.953697 705.951385,639.773562 C706.059465,639.593428 706.077479,639.395284 706.005425,639.179122 C706.581854,639.395284 707.050196,639.37727 707.410465,639.125082 C707.770733,638.872895 708.203049,638.67475 708.707425,638.530642 C709.211801,638.602696 709.770209,638.584683 710.382665,638.476602 C710.995121,638.368522 711.607569,638.278456 712.220025,638.206402 C712.832481,638.134349 713.408902,638.134349 713.949305,638.206402 C714.489708,638.278456 714.867984,638.458588 715.084145,638.746802 C715.948789,638.530641 716.687329,638.512628 717.299785,638.692762 C717.912241,638.872897 718.506675,639.17912 719.083105,639.611442 C718.506675,637.305724 717.786149,634.909975 716.921505,632.424122 C716.056861,629.93827 715.408387,627.54252 714.976065,625.236802 C714.471689,625.236802 714.111426,625.308855 713.895265,625.452962 L712.111945,625.452962 C711.499489,625.452962 710.941081,625.38091 710.436705,625.236802 C708.635363,624.732426 706.816034,623.975874 704.978665,622.967122 C703.141296,621.95837 701.646204,620.877581 700.493345,619.724722 C699.700754,618.932131 698.962215,618.049487 698.277705,617.076762 C697.593195,616.104037 697.178892,615.041261 697.034785,613.888402 C697.034785,613.744295 696.962732,613.672242 696.818625,613.672242 C696.674517,613.672242 696.566438,613.636216 696.494385,613.564162 C696.350277,612.55541 696.566435,611.888924 697.142865,611.564682 C697.719294,611.24044 698.331741,610.970243 698.980225,610.754082 C699.556654,610.898189 700.043009,610.898189 700.439305,610.754082 C700.8356,610.609975 701.394008,610.573948 702.114545,610.646002 C702.690974,610.862163 703.357461,610.934216 704.114025,610.862162 C704.870589,610.790108 705.501049,610.97024 706.005425,611.402562 C707.374445,611.330508 708.527287,611.600706 709.463985,612.213162 C710.400683,612.825618 711.40942,613.311974 712.490225,613.672242 C712.418171,612.879651 712.256053,611.870915 712.003865,610.646002 C711.751677,609.421089 711.625585,608.304274 711.625585,607.295522 C711.625585,607.223468 711.517506,607.187442 711.301345,607.187442 C711.229291,605.818422 711.139225,604.701606 711.031145,603.836962 C710.923064,602.972318 710.796972,601.855502 710.652865,600.486482 C710.508758,600.558535 710.454718,600.666614 710.490745,600.810722 C710.526772,600.954829 710.472732,601.098934 710.328625,601.243042 C710.400679,600.666612 710.490744,600.144231 710.598825,599.675882 C710.706905,599.207533 710.61684,598.757204 710.328625,598.324882 C710.61684,598.180774 710.670879,597.946603 710.490745,597.622362 C710.310611,597.29812 710.292598,597.063949 710.436705,596.919842 C710.076436,596.775734 709.572068,596.721695 708.923585,596.757722 C708.275102,596.793749 707.950865,596.63163 707.950865,596.271362 C707.878811,596.271362 707.842785,596.379441 707.842785,596.595602 C707.770731,596.451494 707.662652,596.397455 707.518545,596.433482 C707.374437,596.469509 707.302385,596.415469 707.302385,596.271362 C705.933365,596.127254 704.726483,595.748978 703.681705,595.136522 C702.636926,594.524065 701.502098,594.001684 700.277185,593.569362 C699.556648,593.497308 699.052279,593.263137 698.764065,592.866842 C698.47585,592.470546 698.151613,592.09227 697.791345,591.732002 C696.998754,591.443787 696.350281,590.83134 695.845905,589.894642 L694.765105,588.813842 C694.404836,588.453573 694.116626,588.021257 693.900465,587.516882 C693.828411,587.228667 693.864437,587.030522 694.008545,586.922442 C694.152652,586.814361 694.152652,586.688269 694.008545,586.544162 C694.008545,586.400054 693.936492,586.364028 693.792385,586.436082 C693.648277,586.508135 693.504172,586.508135 693.360065,586.436082 C693.432118,586.075813 693.504171,585.697537 693.576225,585.301242 C693.648278,584.904946 693.792384,584.52667 694.008545,584.166402 C694.152652,584.094348 694.224705,584.112361 694.224705,584.220442 C694.224705,584.328522 694.296757,584.382562 694.440865,584.382562 C694.296757,584.1664 694.260731,583.968256 694.332785,583.788122 C694.404838,583.607987 694.512917,583.463882 694.657025,583.355802 C694.801132,583.247721 694.909211,583.139642 694.981265,583.031562 C695.053318,582.923481 695.053318,582.761363 694.981265,582.545201 C695.125372,582.401094 695.28749,582.383081 695.467625,582.491161 C695.647759,582.599242 695.809877,582.689308 695.953985,582.761361 C696.818629,582.256986 697.827366,582.11288 698.980225,582.329041 C700.133084,582.545203 701.249899,582.617255 702.330705,582.545201 C702.61892,582.689309 702.871104,582.86944 703.087265,583.085602 C704.528339,583.157655 705.717207,583.607984 706.653905,584.436602 C707.590603,585.265219 708.671392,585.967732 709.896305,586.544162 C710.256573,585.967732 710.400679,585.15714 710.328625,584.112362 C710.256571,583.067583 710.184519,582.401096 710.112465,582.112881 C710.256572,581.968774 710.364651,581.824669 710.436705,581.680561 C710.508759,581.536454 710.40068,581.428375 710.112465,581.356321 C710.112465,581.212214 710.184518,581.158175 710.328625,581.194201 C710.472732,581.230228 710.508759,581.176189 710.436705,581.032081 C710.292598,580.455652 710.292598,580.005323 710.436705,579.681081 C710.580812,579.35684 710.652865,578.906511 710.652865,578.330081 C710.652865,578.185974 710.562799,578.113921 710.382665,578.113921 C710.202531,578.113921 710.184518,578.041869 710.328625,577.897761 C710.328625,577.609547 710.346638,577.519481 710.382665,577.627561 C710.418692,577.735642 710.472731,577.825708 710.544785,577.897761 C710.688892,577.753654 710.742932,577.537496 710.706905,577.249281 C710.670878,576.961067 710.544786,576.92504 710.328625,577.141201 C710.688893,576.780933 710.905051,576.276565 710.977105,575.628081 C711.049159,574.979598 710.905053,574.583309 710.544785,574.439201 C710.688892,574.439201 710.832998,574.313109 710.977105,574.060921 C711.121212,573.808733 711.013133,573.718668 710.652865,573.790721 C710.869026,573.718668 711.013131,573.466484 711.085185,573.034161 C711.157239,572.601839 711.085186,572.277602 710.869025,572.061441 C711.15724,571.84528 711.265319,571.575083 711.193265,571.250841 C711.121211,570.9266 711.013132,570.692429 710.869025,570.548321 C711.15724,570.548321 711.319358,570.386203 711.355385,570.061961 C711.391412,569.73772 711.445451,569.39547 711.517505,569.035201 C711.445451,568.891094 711.391412,568.873081 711.355385,568.981161 C711.319358,569.089242 711.229292,569.071229 711.085185,568.927121 C711.301346,568.783014 711.355385,568.638909 711.247305,568.494801 C711.139224,568.350694 711.193264,568.278641 711.409425,568.278641 L711.409425,568.386721 C711.481479,568.314668 711.481479,568.278641 711.409425,568.278641 C711.265318,567.990426 711.247304,567.756255 711.355385,567.576121 C711.463465,567.395987 711.589558,567.233869 711.733665,567.089761 C711.877772,566.8736 711.841746,566.711482 711.625585,566.603401 C711.409424,566.495321 711.44545,566.441281 711.733665,566.441281 C708.923571,565.288422 706.707953,563.577173 705.086745,561.307481 C703.465537,559.03779 702.258655,556.35383 701.466065,553.255521 C701.466065,552.246769 701.574144,551.346112 701.790305,550.553521 C701.934412,550.33736 701.916399,550.265307 701.736265,550.337361 C701.556131,550.409415 701.466065,550.373388 701.466065,550.229281 C701.682226,549.580798 702.114542,549.040403 702.763025,548.608081 C703.05124,548.752188 703.591634,548.824241 704.384225,548.824241 C708.347178,550.337369 711.517493,552.643052 713.895265,555.741361 L714.111425,555.957521 C714.255532,555.957521 714.291559,555.903482 714.219505,555.795401 C714.147451,555.68732 714.039372,555.669307 713.895265,555.741361 C714.039372,555.597254 714.093412,555.363083 714.057385,555.038841 C714.021358,554.714599 714.14745,554.588507 714.435665,554.660561 C714.075397,554.372346 714.03937,554.120162 714.327585,553.904001 C714.6158,553.68784 714.795931,553.507708 714.867985,553.363601 C714.867985,553.14744 714.759906,553.075387 714.543745,553.147441 C714.687852,553.003334 714.741892,552.823202 714.705865,552.607041 C714.669838,552.39088 714.759904,552.318827 714.976065,552.390881 C714.976065,551.59829 715.12017,550.931804 715.408385,550.391401 C715.6966,549.850998 715.840705,549.29259 715.840705,548.716161 C715.984812,548.572054 716.056865,548.536027 716.056865,548.608081 C716.056865,548.680135 716.128918,548.680135 716.273025,548.608081 C716.056864,548.319866 716.038851,547.94159 716.218985,547.473241 C716.399119,547.004892 716.669317,546.698668 717.029585,546.554561 C716.813424,546.410453 716.741371,546.302375 716.813425,546.230321 C716.885479,546.158267 716.921505,545.978136 716.921505,545.689921 C717.065612,545.545813 717.155678,545.545813 717.191705,545.689921 C717.227732,545.834028 717.317798,545.798002 717.461905,545.581841 L717.245745,545.365681 L717.678065,545.149521 C717.822172,544.93336 717.786146,544.843294 717.569985,544.879321 C717.353824,544.915348 717.281771,544.861308 717.353825,544.717201 C717.425879,544.356932 717.551971,544.104748 717.732105,543.960641 C717.912239,543.816533 718.074358,543.636402 718.218465,543.420241 C718.290519,543.20408 718.254492,543.114014 718.110385,543.150041 C717.966278,543.186068 717.930251,543.132028 718.002305,542.987921 C718.29052,542.699706 718.470651,542.32143 718.542705,541.853081 C718.614759,541.384732 718.830917,541.078508 719.191185,540.934401 C719.047078,540.357971 719.17317,539.925656 719.569465,539.637441 C719.96576,539.349226 720.091852,538.988963 719.947745,538.556641 C720.163906,538.628694 720.253972,538.556642 720.217945,538.340481 C720.181918,538.12432 720.271984,538.088293 720.488145,538.232401 C720.344038,538.088293 720.308011,537.962201 720.380065,537.854121 C720.452119,537.74604 720.416092,537.619948 720.271985,537.475841 C720.416092,537.403787 720.452119,537.349748 720.380065,537.313721 C720.308011,537.277694 720.271985,537.331733 720.271985,537.475841 C719.119126,536.755304 718.182442,535.81862 717.461905,534.665761 C716.741368,533.512902 715.876737,532.540191 714.867985,531.747601 C714.795931,531.459386 714.723879,531.225215 714.651825,531.045081 C714.579771,530.864946 714.543745,530.630775 714.543745,530.342561 C714.399638,529.982292 714.201493,529.640042 713.949305,529.315801 C713.697117,528.991559 713.607051,528.54123 713.679105,527.964801 C713.534998,527.604532 713.390892,527.226256 713.246785,526.829961 C713.102678,526.433665 713.030625,525.983336 713.030625,525.478961 C713.102679,525.262799 713.174731,525.100681 713.246785,524.992601 C713.318839,524.88452 713.390891,524.758428 713.462945,524.614321 C713.534999,524.398159 713.480959,524.290081 713.300825,524.290081 C713.120691,524.290081 713.066651,524.218028 713.138705,524.073921 C713.498973,523.425437 713.895263,522.957095 714.327585,522.66888 C714.543746,522.596827 714.651825,522.704906 714.651825,522.99312 C714.723879,522.488745 714.922023,522.254574 715.246265,522.2906 C715.570507,522.326627 715.768651,522.164509 715.840705,521.80424 C716.200973,521.948348 716.453158,522.07444 716.597265,522.18252 C716.741372,522.290601 717.065609,522.34464 717.569985,522.34464 C718.218468,522.704909 718.866942,523.083185 719.515425,523.47948 C720.163908,523.875776 720.848408,524.254052 721.568945,524.614321 C721.568945,524.758428 721.622985,524.848494 721.731065,524.884521 C721.839146,524.920547 721.857159,525.046639 721.785105,525.262801 C722.577696,525.623069 723.190143,526.163464 723.622465,526.884001 C724.054787,527.604537 724.451077,528.36109 724.811345,529.153681 C725.171614,528.93752 725.405785,528.667322 725.513865,528.343081 C725.621946,528.018839 725.892143,527.784668 726.324465,527.640561 C726.324465,527.496453 726.288439,527.442414 726.216385,527.478441 C726.144331,527.514467 726.108305,527.496454 726.108305,527.424401 C726.684735,526.415649 727.261156,525.442939 727.837585,524.506241 C728.414015,523.569542 728.954409,522.632858 729.458785,521.69616 C729.530839,520.831516 729.584878,519.696687 729.620905,518.29164 C729.656932,516.886593 729.855077,515.787791 730.215345,514.9952 C730.791775,513.986449 731.296143,512.977712 731.728465,511.96896 C732.160787,510.960209 732.737208,510.023525 733.457745,509.15888 C734.178282,508.222182 734.970861,507.357551 735.835505,506.56496 C736.70015,505.77237 737.528755,505.195949 738.321345,504.83568 C738.969829,504.475412 739.636315,504.439385 740.320825,504.7276 C741.005336,505.015815 741.635796,505.231973 742.212225,505.37608 C743.437138,506.384832 743.95952,507.591713 743.779385,508.99676 C743.599251,510.401807 743.401107,511.968952 743.184945,513.69824 C742.752623,514.706992 742.230242,515.60765 741.617785,516.40024 C741.005329,517.192831 740.338842,517.93137 739.618305,518.61588 C738.897768,519.300391 738.159229,519.98489 737.402665,520.6694 C736.646102,521.353911 735.943589,522.09245 735.295105,522.88504 C734.718676,523.029148 734.28636,523.353385 733.998145,523.857761 C733.709931,524.362136 733.457746,524.902531 733.241585,525.478961 C732.448995,526.487712 731.710455,527.550488 731.025945,528.667321 C730.341435,529.784153 729.674948,530.918982 729.026465,532.071841 C729.747002,531.711572 730.557594,531.315283 731.458265,530.882961 C732.358936,530.450638 733.29562,530.072362 734.268345,529.748121 C735.24107,529.423879 736.26782,529.189708 737.348625,529.045601 C738.429431,528.901493 739.546246,528.93752 740.699105,529.153681 C741.059374,529.73011 741.275532,530.252492 741.347585,530.720841 C741.419639,531.18919 741.347587,531.81965 741.131425,532.612241 C740.554996,533.693046 739.744404,534.557677 738.699625,535.206161 C737.654847,535.854644 736.70015,536.611196 735.835505,537.475841 C734.17827,538.124324 732.593113,538.574653 731.079985,538.826841 C729.566858,539.079029 727.837595,539.349226 725.892145,539.637441 C725.531877,540.285924 725.20764,541.00645 724.919425,541.799041 C724.63121,542.591631 724.415053,543.420237 724.270945,544.284881 C723.694516,545.149525 723.298226,546.068196 723.082065,547.040921 C722.865904,548.013646 722.469615,548.968343 721.893185,549.905041 C721.893185,550.481471 721.74908,550.913786 721.460865,551.202001 C721.17265,551.490216 721.028545,551.958558 721.028545,552.607041 C720.668277,552.967309 720.470132,553.435651 720.434105,554.012081 C720.398078,554.588511 720.199934,555.164931 719.839665,555.741361 C720.416095,555.236985 721.046555,554.732617 721.731065,554.228241 C722.415575,553.723865 723.172128,553.255523 724.000745,552.823201 C724.829363,552.390879 725.712007,552.030616 726.648705,551.742401 C727.585403,551.454186 728.59414,551.346107 729.674945,551.418161 C730.107267,551.778429 730.575609,552.318824 731.079985,553.039361 C730.287395,556.353831 728.828329,558.983751 726.702745,560.929201 C724.577161,562.874651 722.145385,564.567887 719.407345,566.008961 C719.047077,565.936908 718.758866,565.954921 718.542705,566.063001 C718.326544,566.171082 718.038334,566.225121 717.678065,566.225121 C717.750119,566.225121 717.64204,566.297174 717.353825,566.441281 C716.633288,569.755751 715.912762,572.980106 715.192225,576.114441 C714.471688,579.248777 714.039372,582.689289 713.895265,586.436082 C714.327587,585.787598 714.759903,585.211177 715.192225,584.706802 C715.624547,584.202426 716.056863,583.662031 716.489185,583.085602 C717.425883,581.860689 718.632764,580.653807 720.109865,579.464921 C721.586966,578.276035 723.082058,577.609549 724.595185,577.465441 C724.811346,577.753656 725.06353,577.987827 725.351745,578.167961 C725.63996,578.348096 725.892144,578.582267 726.108305,578.870481 C726.108305,579.158696 726.162345,579.46492 726.270425,579.789161 C726.378506,580.113403 726.468571,580.455653 726.540625,580.815921 C726.396518,582.401103 725.982215,583.716063 725.297705,584.760842 C724.613195,585.80562 724.054787,587.012501 723.622465,588.381522 C722.397552,589.894649 720.974513,591.209609 719.353305,592.326442 C717.732097,593.443274 716.0929,594.578103 714.435665,595.730962 C714.291558,597.099982 714.291558,598.378916 714.435665,599.567802 C714.579772,600.756688 714.543746,601.747411 714.327585,602.540002 C714.327585,602.612056 714.381624,602.630069 714.489705,602.594042 C714.597786,602.558015 714.651825,602.612054 714.651825,602.756162 C714.795932,604.557504 715.06613,606.268754 715.462425,607.889962 C715.85872,609.51117 716.236997,611.114341 716.597265,612.699522 C716.741372,612.771576 716.849451,612.915681 716.921505,613.131842 C716.993559,613.348003 717.101638,613.528135 717.245745,613.672242 C718.110389,609.204913 719.875678,605.81844 722.541665,603.512722 C723.046041,603.0804 723.568422,602.666097 724.108825,602.269802 C724.649228,601.873507 725.207636,601.603309 725.784065,601.459202 C726.864871,601.675363 727.693476,602.035626 728.269905,602.540002 C728.630174,603.981076 728.720239,605.296036 728.540105,606.484922 C728.359971,607.673808 728.233879,608.916715 728.161825,610.213682 C728.089772,610.357789 727.999706,610.59196 727.891625,610.916202 C727.783545,611.240444 727.765532,611.510641 727.837585,611.726802 C726.828833,613.816359 725.784071,615.905885 724.703265,617.995442 C723.62246,620.084999 722.037302,621.63413 719.947745,622.642882 C720.308014,624.083956 720.668277,625.36289 721.028545,626.479722 C721.388814,627.596555 721.677024,628.803436 721.893185,630.100402 C722.109346,630.892993 722.397557,631.649545 722.757825,632.370082 C723.118094,633.090619 723.370278,633.955251 723.514385,634.964002 C724.090815,635.972754 724.649222,637.143609 725.189625,638.476602 C725.730028,639.809596 726.288436,641.08853 726.864865,642.313443 C726.864865,642.889872 726.900891,643.286161 726.972945,643.502323 C727.333214,642.925893 727.639437,642.277419 727.891625,641.556882 C728.143813,640.836346 728.341958,640.079793 728.486065,639.287202 C728.630173,639.287202 728.684212,639.305216 728.648185,639.341242 C728.612158,639.377269 728.630172,639.431309 728.702225,639.503362 C729.855084,637.269698 731.152031,635.252225 732.593105,633.450882 C734.034179,631.64954 735.799468,630.172461 737.889025,629.019602 C738.17724,628.947549 738.429424,628.947549 738.645585,629.019602 C739.726391,629.379871 740.46493,629.974305 740.861225,630.802922 C741.257521,631.63154 741.455665,632.65829 741.455665,633.883202 C741.311558,635.252223 740.987321,636.477117 740.482945,637.557922 C739.97857,638.638728 739.58228,639.935675 739.294065,641.448802 C738.069153,643.466306 736.610087,645.231595 734.916825,646.744723 C733.223563,648.25785 731.54834,649.806981 729.891105,651.392163 C730.17932,652.400914 730.52157,653.193493 730.917865,653.769923 C731.314161,654.346352 731.692437,655.066878 732.052705,655.931523 C732.268866,656.219738 732.503037,656.471922 732.755225,656.688083 C733.007413,656.904244 733.169532,657.264507 733.241585,657.768883 C734.250337,659.209957 735.313113,660.632996 736.429945,662.038043 C737.546778,663.44309 738.717633,664.830103 739.942545,666.199123 C740.735136,666.775552 741.545728,667.406013 742.374345,668.090523 C743.202963,668.775033 744.013555,669.405493 744.806145,669.981923 C745.09436,670.414245 745.346544,670.846561 745.562706,671.278883 C745.778867,671.711205 745.850919,672.323652 745.778866,673.116243 C745.418597,673.83678 744.914229,674.341148 744.265745,674.629363 C743.905477,674.629363 743.599253,674.575324 743.347065,674.467243 C743.094878,674.359163 742.82468,674.377176 742.536465,674.521283 C739.51021,672.431726 736.898303,670.035976 734.700665,667.333963 C732.503028,664.631949 730.359462,661.767858 728.269905,658.741603 C728.269905,658.453388 728.1258,658.381335 727.837585,658.525443 C727.981693,658.165174 727.927653,657.876964 727.675465,657.660803 C727.423277,657.444642 727.225133,657.228484 727.081025,657.012323 C726.720757,656.435893 726.39652,655.805433 726.108305,655.120923 C725.82009,654.436413 725.495854,653.805952 725.135585,653.229523 C724.84737,653.085415 724.415055,653.085415 723.838625,653.229523 C723.262196,653.37363 722.901933,653.265551 722.757825,652.905283 C722.685771,652.905283 722.631732,652.977335 722.595705,653.121443 C722.559678,653.26555 722.469613,653.26555 722.325505,653.121443 Z M713.679105,524.506241 C713.751159,524.290079 713.787185,524.290079 713.787185,524.506241 C713.787185,524.722402 713.751159,524.722402 713.679105,524.506241 Z M727.405265,525.587041 C727.477319,525.370879 727.513345,525.370879 727.513345,525.587041 C727.513345,525.803202 727.477319,525.803202 727.405265,525.587041 Z M722.757825,562.118081 C722.829879,562.046027 722.919945,562.010001 723.028025,562.010001 C723.136106,562.010001 723.154119,561.937949 723.082065,561.793841 C722.865904,561.721787 722.757825,561.829866 722.757825,562.118081 Z M697.791345,585.895682 C697.935452,585.67952 698.007505,585.661507 698.007505,585.841642 C698.007505,586.021776 697.935452,586.039789 697.791345,585.895682 Z M707.734705,596.271362 C707.734705,596.199308 707.662652,596.235334 707.518545,596.379442 C707.518545,596.307388 707.590597,596.271362 707.734705,596.271362 Z M708.383185,596.595602 L708.599345,596.595602 C708.743452,596.451494 708.725439,596.361429 708.545305,596.325402 C708.365171,596.289375 708.275105,596.343414 708.275105,596.487522 C708.347159,596.487522 708.383185,596.523548 708.383185,596.595602 Z M708.923585,596.487522 C708.923585,596.415468 708.851532,596.451494 708.707425,596.595602 C708.707425,596.523548 708.779477,596.487522 708.923585,596.487522 Z M723.946705,615.833842 C723.946705,615.689735 724.000745,615.563643 724.108825,615.455562 C724.216906,615.347482 724.198893,615.257416 724.054785,615.185362 C724.054785,615.257416 724.000746,615.365495 723.892665,615.509602 C723.784585,615.653709 723.802598,615.761788 723.946705,615.833842 Z M709.572065,642.637683 C709.716172,642.421521 709.788225,642.403508 709.788225,642.583643 C709.788225,642.763777 709.716172,642.78179 709.572065,642.637683 Z M705.573105,643.934643 L705.789265,643.934643 L705.789265,643.718483 L705.573105,643.718483 L705.573105,643.934643 Z M723.622465,653.013363 C723.478358,652.869255 723.334253,652.833229 723.190145,652.905283 C723.118091,653.04939 723.190144,653.121443 723.406305,653.121443 C723.622466,653.121443 723.694519,653.085416 723.622465,653.013363 Z M723.730545,653.013363 C723.874653,652.797202 723.946705,652.779188 723.946705,652.959323 C723.946705,653.139457 723.874653,653.15747 723.730545,653.013363 Z M726.108305,562.334241 C726.252413,562.11808 726.324465,562.100067 726.324465,562.280201 C726.324465,562.460335 726.252413,562.478349 726.108305,562.334241 Z M710.977105,570.007921 C711.121212,569.863814 711.193265,569.827788 711.193265,569.899841 C711.049158,569.899841 710.977105,569.935868 710.977105,570.007921 Z M710.436705,576.060401 C710.580812,575.988348 710.652865,576.096427 710.652865,576.384641 C710.580811,576.312588 710.508759,576.276561 710.436705,576.276561 L710.436705,576.060401 Z M727.405265,614.320722 C727.405265,614.248668 727.513344,614.212642 727.729505,614.212642 C727.729505,614.284696 727.693479,614.302709 727.621425,614.266682 C727.549372,614.230655 727.477319,614.248668 727.405265,614.320722 Z M725.351745,638.854882 C725.495853,638.710775 725.567905,638.674749 725.567905,638.746802 C725.423798,638.746802 725.351745,638.782829 725.351745,638.854882 Z M725.351745,639.071042 C725.351745,638.998989 725.459824,638.962962 725.675985,638.962962 C725.675985,639.035016 725.639959,639.053029 725.567905,639.017002 C725.495851,638.980976 725.423799,638.998989 725.351745,639.071042 Z M726.216385,657.768883 C726.072278,657.624775 726.072278,657.426631 726.216385,657.174443 C726.360493,656.922255 726.360493,656.72411 726.216385,656.580003 C726.5046,656.652056 726.576653,656.796162 726.432545,657.012323 C726.288438,657.228484 726.252411,657.480668 726.324465,657.768883 L726.216385,657.768883 Z M726.216385,657.768883 C726.288439,657.840936 726.288439,657.949015 726.216385,658.093123 C726.144331,658.093123 726.108305,658.039083 726.108305,657.931003 C726.108305,657.822922 726.144331,657.768883 726.216385,657.768883 Z M744.914225,670.090003 C745.058333,669.945896 745.130385,669.909869 745.130385,669.981923 C744.986278,669.981923 744.914225,670.017949 744.914225,670.090003 Z" id="n" transform="translate(719.582975, 589.582410) scale(-1, 1) rotate(-88.000000) translate(-719.582975, -589.582410) "></path>
        </g>
    </g>
</svg>