<?xml version="1.0" encoding="UTF-8"?>
<svg width="70px" height="23px" viewBox="0 0 70 23" version="1.1" xmlns="http://www.w3.org/2000/svg" xmlns:xlink="http://www.w3.org/1999/xlink">
    <!-- Generator: Sketch 46.2 (44496) - http://www.bohemiancoding.com/sketch -->
    <title>n copy 2</title>
    <desc>Created with Sketch.</desc>
    <defs>
        <linearGradient x1="47.5926101%" y1="-11.0314429%" x2="47.5926101%" y2="100%" id="linearGradient-1">
            <stop stop-color="#F8EAE0" offset="0%"></stop>
            <stop stop-color="#F5DED8" offset="9.76904423%"></stop>
            <stop stop-color="#F4D9D4" offset="26.0024713%"></stop>
            <stop stop-color="#F7E7DE" offset="27.3744718%"></stop>
            <stop stop-color="#C48F8B" offset="100%"></stop>
        </linearGradient>
    </defs>
    <g id="Website" stroke="none" stroke-width="1" fill="none" fill-rule="evenodd">
        <g id="Desktop-HD-Copy-5" transform="translate(-685.000000, -1398.000000)" fill-rule="nonzero" fill="url(#linearGradient-1)">
            <path d="M721.258437,1435.7707 C721.287907,1435.74124 721.317376,1435.7265 721.346845,1435.7265 C721.346845,1435.66756 721.332111,1435.64546 721.302641,1435.66019 C721.273172,1435.67493 721.258437,1435.71177 721.258437,1435.7707 L721.170029,1435.7707 C720.757456,1435.74124 720.293319,1435.6602 719.777602,1435.52758 C719.261886,1435.39497 718.812483,1435.24026 718.42938,1435.06344 C718.282032,1435.06344 718.149422,1435.04871 718.031544,1435.01924 C717.913666,1434.98977 717.795789,1434.94556 717.677912,1434.88662 C717.2064,1434.82769 716.852771,1434.66561 716.617015,1434.40038 C716.381259,1434.13515 716.0571,1433.94361 715.644527,1433.82573 C715.497179,1433.50156 715.283528,1433.27318 715.003568,1433.14057 C714.723608,1433.00795 714.509957,1432.7943 714.36261,1432.49961 C714.333141,1432.38173 714.340508,1432.28595 714.384712,1432.21228 C714.428916,1432.13861 714.421549,1432.08704 714.36261,1432.05757 C714.303671,1431.99863 714.266835,1431.99126 714.2521,1432.03547 C714.237365,1432.07967 714.200529,1432.0723 714.14159,1432.01336 C714.082651,1431.92495 714.060549,1431.77024 714.075284,1431.54922 C714.090019,1431.3282 714.126855,1431.11455 714.185794,1430.90826 C714.244733,1430.87879 714.281569,1430.87879 714.296304,1430.90826 C714.311039,1430.93773 714.347875,1430.9672 714.406814,1430.99667 C714.347875,1430.87879 714.325773,1430.78302 714.340508,1430.70934 C714.355243,1430.63567 714.384712,1430.56937 714.428916,1430.51043 C714.47312,1430.45149 714.517324,1430.38518 714.561528,1430.31151 C714.605732,1430.23783 714.6131,1430.15679 714.58363,1430.06839 C714.819386,1430.15679 715.010935,1430.14943 715.158282,1430.04628 C715.30563,1429.94314 715.482444,1429.8621 715.688731,1429.80316 C715.895017,1429.83263 716.123402,1429.82526 716.373893,1429.78106 C716.624384,1429.73686 716.874871,1429.70002 717.125361,1429.67055 C717.375852,1429.64108 717.611604,1429.64108 717.832626,1429.67055 C718.053647,1429.70002 718.208359,1429.77369 718.296768,1429.89157 C718.650402,1429.80316 718.952459,1429.79579 719.20295,1429.86947 C719.453441,1429.94314 719.696561,1430.06839 719.932317,1430.2452 C719.696561,1429.30218 719.40187,1428.32233 719.048236,1427.30563 C718.694602,1426.28894 718.429381,1425.30909 718.252564,1424.36607 C718.046277,1424.36607 717.898932,1424.39554 717.810524,1424.45448 L717.081157,1424.45448 C716.830667,1424.45448 716.602281,1424.42501 716.395995,1424.36607 C715.659258,1424.15978 714.915164,1423.85036 714.163692,1423.43778 C713.41222,1423.02521 712.800737,1422.58317 712.329225,1422.11166 C712.005061,1421.7875 711.703003,1421.4265 711.423043,1421.02866 C711.143083,1420.63083 710.973635,1420.19616 710.914696,1419.72465 C710.914696,1419.66571 710.885227,1419.63624 710.826288,1419.63624 C710.767349,1419.63624 710.723146,1419.6215 710.693676,1419.59203 C710.634737,1419.17946 710.723145,1418.90687 710.9589,1418.77426 C711.194656,1418.64165 711.445143,1418.53114 711.710369,1418.44273 C711.946125,1418.50167 712.145041,1418.50167 712.307123,1418.44273 C712.469205,1418.38379 712.69759,1418.36906 712.992285,1418.39852 C713.228041,1418.48693 713.50063,1418.5164 713.81006,1418.48693 C714.119489,1418.45746 714.377344,1418.53114 714.58363,1418.70795 C715.14355,1418.67848 715.615055,1418.78899 715.998159,1419.03948 C716.381262,1419.28997 716.793829,1419.48889 717.235871,1419.63624 C717.206402,1419.31207 717.140096,1418.89951 717.036953,1418.39852 C716.93381,1417.89754 716.882239,1417.44077 716.882239,1417.0282 C716.882239,1416.99873 716.838036,1416.984 716.749627,1416.984 C716.720158,1416.42408 716.683321,1415.96731 716.639117,1415.61367 C716.594913,1415.26004 716.543342,1414.80327 716.484403,1414.24335 C716.425464,1414.27282 716.403362,1414.31702 716.418097,1414.37596 C716.432832,1414.4349 716.41073,1414.49384 716.351791,1414.55278 C716.38126,1414.31702 716.418097,1414.10337 716.462301,1413.91182 C716.506505,1413.72027 716.469669,1413.53608 716.351791,1413.35927 C716.469669,1413.30033 716.491771,1413.20455 716.418097,1413.07194 C716.344423,1412.93933 716.337056,1412.84355 716.395995,1412.78461 C716.248647,1412.72568 716.042364,1412.70357 715.777139,1412.71831 C715.511913,1412.73304 715.379302,1412.66674 715.379302,1412.51939 C715.349833,1412.51939 715.335098,1412.56359 715.335098,1412.652 C715.305629,1412.59306 715.261425,1412.57096 715.202486,1412.5857 C715.143547,1412.60043 715.114078,1412.57833 715.114078,1412.51939 C714.554158,1412.46045 714.060551,1412.30574 713.633244,1412.05525 C713.205936,1411.80476 712.741798,1411.59111 712.240817,1411.41429 C711.946122,1411.38482 711.739839,1411.28905 711.621961,1411.12696 C711.504083,1410.96488 711.371472,1410.81017 711.224125,1410.66282 C710.89996,1410.54494 710.634739,1410.29446 710.428452,1409.91135 L709.986412,1409.46931 C709.839065,1409.32197 709.721188,1409.14515 709.63278,1408.93886 C709.60331,1408.82099 709.618045,1408.73995 709.676984,1408.69574 C709.735923,1408.65154 709.735923,1408.59997 709.676984,1408.54103 C709.676984,1408.48209 709.647515,1408.46735 709.588576,1408.49682 C709.529637,1408.52629 709.470699,1408.52629 709.41176,1408.49682 C709.441229,1408.34948 709.470698,1408.19476 709.500168,1408.03268 C709.529637,1407.8706 709.588575,1407.71589 709.676984,1407.56854 C709.735923,1407.53907 709.765392,1407.54644 709.765392,1407.59064 C709.765392,1407.63485 709.794861,1407.65695 709.8538,1407.65695 C709.794861,1407.56854 709.780126,1407.4875 709.809596,1407.41383 C709.839065,1407.34015 709.883269,1407.28121 709.942208,1407.23701 C710.001147,1407.19281 710.045351,1407.1486 710.07482,1407.1044 C710.10429,1407.06019 710.10429,1406.99389 710.07482,1406.90548 C710.133759,1406.84654 710.200064,1406.83917 710.273738,1406.88338 C710.347412,1406.92758 710.413717,1406.96442 710.472656,1406.99389 C710.82629,1406.7876 711.238857,1406.72866 711.710369,1406.81707 C712.181881,1406.90548 712.638651,1406.93495 713.080693,1406.90548 C713.198571,1406.96442 713.301713,1407.03809 713.390122,1407.1265 C713.979511,1407.15597 714.465751,1407.34015 714.848854,1407.67905 C715.231958,1408.01795 715.673993,1408.30527 716.174975,1408.54103 C716.322322,1408.30527 716.38126,1407.97375 716.351791,1407.54644 C716.322321,1407.11913 716.292852,1406.84654 716.263383,1406.72866 C716.322322,1406.66972 716.366525,1406.61079 716.395995,1406.55185 C716.425464,1406.49291 716.381261,1406.4487 716.263383,1406.41924 C716.263383,1406.3603 716.292852,1406.33819 716.351791,1406.35293 C716.41073,1406.36766 716.425464,1406.34556 716.395995,1406.28662 C716.337056,1406.05087 716.337056,1405.86669 716.395995,1405.73407 C716.454934,1405.60146 716.484403,1405.41728 716.484403,1405.18152 C716.484403,1405.12258 716.447567,1405.09311 716.373893,1405.09311 C716.300219,1405.09311 716.292852,1405.06365 716.351791,1405.00471 C716.351791,1404.88683 716.359158,1404.84999 716.373893,1404.8942 C716.388628,1404.9384 716.410729,1404.97524 716.440199,1405.00471 C716.499138,1404.94577 716.52124,1404.85736 716.506505,1404.73948 C716.49177,1404.6216 716.440199,1404.60687 716.351791,1404.69528 C716.499138,1404.54793 716.587546,1404.34165 716.617015,1404.07642 C716.646485,1403.8112 716.587546,1403.64912 716.440199,1403.59018 C716.499138,1403.59018 716.558076,1403.53861 716.617015,1403.43546 C716.675954,1403.33232 716.63175,1403.29548 716.484403,1403.32495 C716.572811,1403.29548 716.63175,1403.19234 716.661219,1403.01553 C716.690689,1402.83871 716.661219,1402.7061 716.572811,1402.61769 C716.690689,1402.52928 716.734893,1402.41877 716.705423,1402.28616 C716.675954,1402.15355 716.63175,1402.05777 716.572811,1401.99883 C716.690689,1401.99883 716.756994,1401.93253 716.771729,1401.79992 C716.786464,1401.6673 716.808566,1401.52732 716.838035,1401.37998 C716.808566,1401.32104 716.786464,1401.31367 716.771729,1401.35788 C716.756994,1401.40208 716.720158,1401.39471 716.661219,1401.33577 C716.749628,1401.27683 716.771729,1401.2179 716.727525,1401.15896 C716.683321,1401.10002 716.705423,1401.07055 716.793831,1401.07055 L716.793831,1401.11475 C716.823301,1401.08528 716.823301,1401.07055 716.793831,1401.07055 C716.734892,1400.95267 716.727525,1400.8569 716.771729,1400.78322 C716.815933,1400.70955 716.867504,1400.64324 716.926443,1400.5843 C716.985382,1400.4959 716.970648,1400.42959 716.882239,1400.38539 C716.793831,1400.34118 716.808565,1400.31908 716.926443,1400.31908 C715.777133,1399.84757 714.87096,1399.14768 714.207896,1398.21939 C713.544832,1397.2911 713.051226,1396.19338 712.727061,1394.92619 C712.727061,1394.51362 712.771265,1394.14525 712.859673,1393.82109 C712.918612,1393.73268 712.911245,1393.70321 712.837571,1393.73268 C712.763898,1393.76215 712.727061,1393.74742 712.727061,1393.68848 C712.81547,1393.42325 712.992284,1393.20223 713.25751,1393.02542 C713.375387,1393.08436 713.596405,1393.11383 713.92057,1393.11383 C715.541392,1393.73268 716.83803,1394.67569 717.810524,1395.94288 L717.898932,1396.03129 C717.957871,1396.03129 717.972605,1396.00919 717.943136,1395.96498 C717.913666,1395.92078 717.869463,1395.91341 717.810524,1395.94288 C717.869463,1395.88394 717.891564,1395.78817 717.87683,1395.65556 C717.862095,1395.52294 717.913666,1395.47137 718.031544,1395.50084 C717.884196,1395.38296 717.869462,1395.27982 717.98734,1395.19141 C718.105218,1395.10301 718.17889,1395.02933 718.20836,1394.97039 C718.20836,1394.88199 718.164156,1394.85252 718.075748,1394.88199 C718.134687,1394.82305 718.156788,1394.74937 718.142054,1394.66097 C718.127319,1394.57256 718.164155,1394.54309 718.252564,1394.57256 C718.252564,1394.24839 718.311502,1393.97581 718.42938,1393.75478 C718.547258,1393.53376 718.606196,1393.30538 718.606196,1393.06962 C718.665135,1393.01068 718.694604,1392.99595 718.694604,1393.02542 C718.694604,1393.05489 718.724073,1393.05489 718.783012,1393.02542 C718.694604,1392.90754 718.687236,1392.75283 718.76091,1392.56128 C718.834584,1392.36972 718.945093,1392.24448 719.09244,1392.18554 C719.004032,1392.1266 718.974563,1392.0824 719.004032,1392.05293 C719.033502,1392.02346 719.048236,1391.94979 719.048236,1391.83191 C719.107175,1391.77297 719.144011,1391.77297 719.158746,1391.83191 C719.173481,1391.89085 719.210317,1391.87611 719.269256,1391.7877 L719.180848,1391.6993 L719.357664,1391.61089 C719.416603,1391.52248 719.401869,1391.48564 719.31346,1391.50038 C719.225052,1391.51511 719.195583,1391.49301 719.225052,1391.43407 C719.254522,1391.28673 719.306093,1391.18358 719.379766,1391.12464 C719.45344,1391.06571 719.519745,1390.99203 719.578684,1390.90362 C719.608154,1390.81522 719.593419,1390.77838 719.53448,1390.79311 C719.475541,1390.80785 719.460807,1390.78575 719.490276,1390.72681 C719.608154,1390.60893 719.681827,1390.45422 719.711296,1390.26267 C719.740766,1390.07111 719.829173,1389.94587 719.976521,1389.88693 C719.917582,1389.65118 719.969152,1389.47436 720.131235,1389.35648 C720.293317,1389.23861 720.344888,1389.09126 720.285949,1388.91444 C720.374357,1388.94391 720.411193,1388.91444 720.396459,1388.82604 C720.381724,1388.73763 720.41856,1388.72289 720.506969,1388.78183 C720.44803,1388.72289 720.433295,1388.67132 720.462765,1388.62712 C720.492234,1388.58291 720.4775,1388.53134 720.418561,1388.4724 C720.4775,1388.44293 720.492234,1388.42083 720.462765,1388.4061 C720.433295,1388.39136 720.418561,1388.41346 720.418561,1388.4724 C719.947049,1388.17771 719.563951,1387.79461 719.269256,1387.3231 C718.974561,1386.85159 718.620933,1386.45375 718.20836,1386.12959 C718.17889,1386.01171 718.149421,1385.91594 718.119952,1385.84226 C718.090482,1385.76859 718.075748,1385.67282 718.075748,1385.55494 C718.016809,1385.40759 717.935769,1385.26761 717.832626,1385.135 C717.729482,1385.00239 717.692646,1384.81821 717.722116,1384.58245 C717.663177,1384.4351 717.604238,1384.28039 717.545299,1384.11831 C717.48636,1383.95623 717.456891,1383.77204 717.456891,1383.56576 C717.486361,1383.47735 717.51583,1383.41104 717.545299,1383.36684 C717.574769,1383.32263 717.604238,1383.27106 717.633707,1383.21213 C717.663177,1383.12372 717.641075,1383.07951 717.567401,1383.07951 C717.493728,1383.07951 717.471626,1383.05004 717.501095,1382.9911 C717.648443,1382.72588 717.810523,1382.53433 717.98734,1382.41645 C718.075748,1382.38698 718.119952,1382.43119 718.119952,1382.54906 C718.149421,1382.34278 718.230461,1382.247 718.363074,1382.26174 C718.495687,1382.27647 718.576726,1382.21017 718.606196,1382.06282 C718.753543,1382.12176 718.856685,1382.17333 718.915624,1382.21753 C718.974563,1382.26174 719.107174,1382.28384 719.31346,1382.28384 C719.578686,1382.43119 719.843907,1382.5859 720.109133,1382.74798 C720.374358,1382.91007 720.654314,1383.06478 720.949009,1383.21213 C720.949009,1383.27106 720.971111,1383.3079 721.015315,1383.32264 C721.059519,1383.33737 721.066887,1383.38894 721.037417,1383.47735 C721.361581,1383.6247 721.612068,1383.84571 721.788885,1384.14041 C721.965702,1384.4351 722.127782,1384.74453 722.27513,1385.06869 C722.422477,1384.98029 722.518251,1384.86978 722.562456,1384.73716 C722.60666,1384.60455 722.717169,1384.50878 722.893986,1384.44984 C722.893986,1384.3909 722.879251,1384.3688 722.849782,1384.38353 C722.820312,1384.39827 722.805578,1384.3909 722.805578,1384.36143 C723.041334,1383.94886 723.277086,1383.55102 723.512842,1383.16792 C723.748598,1382.78482 723.969616,1382.40172 724.175902,1382.01862 C724.205372,1381.66498 724.227474,1381.20085 724.242208,1380.62619 C724.256943,1380.05153 724.337983,1379.60213 724.485331,1379.27797 C724.721087,1378.86539 724.92737,1378.45283 725.104187,1378.04025 C725.281004,1377.62768 725.516756,1377.24458 725.811451,1376.89095 C726.106146,1376.50785 726.430306,1376.15422 726.78394,1375.83005 C727.137574,1375.50589 727.476468,1375.27014 727.800632,1375.12279 C728.065857,1374.97544 728.338446,1374.96071 728.618406,1375.07859 C728.898367,1375.19646 729.156221,1375.28487 729.391977,1375.34381 C729.892958,1375.75638 730.106609,1376.24999 730.032935,1376.82464 C729.959261,1377.3993 729.878221,1378.04025 729.789813,1378.74752 C729.612996,1379.16009 729.399345,1379.52846 729.148855,1379.85262 C728.898364,1380.17678 728.625775,1380.47884 728.33108,1380.7588 C728.036385,1381.03876 727.734328,1381.31872 727.424898,1381.59868 C727.115468,1381.87864 726.828145,1382.1807 726.562919,1382.50486 C726.327164,1382.5638 726.150349,1382.69641 726.032471,1382.9027 C725.914593,1383.10898 725.811452,1383.33 725.723043,1383.56576 C725.398879,1383.97833 725.096821,1384.413 724.816861,1384.86978 C724.536901,1385.32655 724.264312,1385.79069 723.999086,1386.2622 C724.293781,1386.11485 724.625308,1385.95278 724.993677,1385.77596 C725.362045,1385.59914 725.745143,1385.44443 726.142981,1385.31182 C726.540819,1385.1792 726.960753,1385.08343 727.402796,1385.02449 C727.844838,1384.96555 728.301609,1384.98029 728.77312,1385.06869 C728.920468,1385.30445 729.008875,1385.5181 729.038345,1385.70965 C729.067814,1385.9012 729.038345,1386.15906 728.949937,1386.48322 C728.714181,1386.92526 728.382654,1387.27889 727.955346,1387.54412 C727.528038,1387.80934 727.137574,1388.11877 726.78394,1388.4724 C726.106141,1388.73763 725.457822,1388.92181 724.838963,1389.02495 C724.220103,1389.1281 723.512846,1389.23861 722.71717,1389.35648 C722.569822,1389.62171 722.437212,1389.9164 722.319334,1390.24056 C722.201456,1390.56473 722.113048,1390.90362 722.054109,1391.25726 C721.818354,1391.61089 721.656274,1391.98662 721.567865,1392.38446 C721.479457,1392.7823 721.317377,1393.17276 721.081621,1393.55587 C721.081621,1393.79162 721.022683,1393.96844 720.904805,1394.08631 C720.786927,1394.20419 720.727989,1394.39574 720.727989,1394.66097 C720.580641,1394.80831 720.499602,1394.99986 720.484867,1395.23562 C720.470132,1395.47137 720.389092,1395.70713 720.241745,1395.94288 C720.477501,1395.7366 720.735355,1395.53031 721.015315,1395.32403 C721.295275,1395.11774 721.6047,1394.92619 721.943599,1394.74937 C722.282499,1394.57256 722.643494,1394.42521 723.026598,1394.30733 C723.409701,1394.18946 723.822268,1394.14525 724.26431,1394.17472 C724.441127,1394.32207 724.632676,1394.54309 724.838963,1394.83778 C724.514798,1396.19338 723.91805,1397.269 723.0487,1398.06468 C722.17935,1398.86035 721.184769,1399.55287 720.064929,1400.14226 C719.917581,1400.1128 719.799705,1400.12016 719.711296,1400.16437 C719.622888,1400.20857 719.505012,1400.23067 719.357664,1400.23067 C719.387134,1400.23067 719.34293,1400.26014 719.225052,1400.31908 C718.930357,1401.67468 718.635667,1402.99342 718.340972,1404.27534 C718.046277,1405.55726 717.869463,1406.96441 717.810524,1408.49682 C717.987341,1408.2316 718.164155,1407.99585 718.340972,1407.78956 C718.517789,1407.58327 718.694603,1407.36226 718.87142,1407.1265 C719.254523,1406.62552 719.74813,1406.13191 720.352255,1405.64567 C720.956379,1405.15942 721.567862,1404.88683 722.186722,1404.82789 C722.27513,1404.94577 722.378272,1405.04154 722.49615,1405.11522 C722.614028,1405.18889 722.717169,1405.28467 722.805578,1405.40254 C722.805578,1405.52042 722.82768,1405.64566 722.871884,1405.77828 C722.916088,1405.91089 722.952924,1406.05087 722.982394,1406.19822 C722.923455,1406.84654 722.754008,1407.38435 722.474048,1407.81166 C722.194087,1408.23897 721.965702,1408.73258 721.788885,1409.2925 C721.287904,1409.91136 720.70589,1410.44917 720.042827,1410.90594 C719.379763,1411.36272 718.709342,1411.82686 718.031544,1412.29837 C717.972605,1412.85829 717.972605,1413.38137 718.031544,1413.86761 C718.090483,1414.35386 718.075748,1414.75906 717.98734,1415.08322 C717.98734,1415.11269 718.009441,1415.12006 718.053646,1415.10533 C718.09785,1415.09059 718.119952,1415.11269 718.119952,1415.17163 C718.178891,1415.90837 718.2894,1416.60826 718.451482,1417.27132 C718.613564,1417.93439 718.768277,1418.59007 718.915624,1419.2384 C718.974563,1419.26787 719.018767,1419.32681 719.048236,1419.41522 C719.077706,1419.50363 719.121909,1419.5773 719.180848,1419.63624 C719.534482,1417.80913 720.256474,1416.42408 721.346845,1415.48106 C721.553132,1415.30424 721.766782,1415.1348 721.987803,1414.97271 C722.208825,1414.81063 722.43721,1414.70012 722.672966,1414.64118 C723.115008,1414.72959 723.453902,1414.87694 723.689658,1415.08322 C723.837006,1415.67261 723.873842,1416.21042 723.800168,1416.69667 C723.726495,1417.18292 723.674924,1417.69126 723.645454,1418.22171 C723.615985,1418.28065 723.579148,1418.37642 723.534944,1418.50903 C723.49074,1418.64165 723.483373,1418.75216 723.512842,1418.84057 C723.100269,1419.69518 722.672968,1420.54978 722.230926,1421.4044 C721.788883,1422.25901 721.140564,1422.8926 720.285949,1423.30517 C720.433296,1423.89456 720.580641,1424.41764 720.727989,1424.87441 C720.875336,1425.33119 720.993213,1425.8248 721.081621,1426.35525 C721.17003,1426.67941 721.287906,1426.98884 721.435253,1427.28353 C721.582601,1427.57823 721.685742,1427.93186 721.744681,1428.34443 C721.980437,1428.757 722.208822,1429.23587 722.429844,1429.78106 C722.650865,1430.32625 722.87925,1430.84932 723.115006,1431.3503 C723.115006,1431.58606 723.12974,1431.74814 723.15921,1431.83655 C723.306557,1431.60079 723.431801,1431.33557 723.534944,1431.04087 C723.638087,1430.74618 723.719127,1430.43675 723.778066,1430.11259 C723.837005,1430.11259 723.859107,1430.11996 723.844372,1430.13469 C723.829638,1430.14943 723.837005,1430.17153 723.866474,1430.201 C724.337986,1429.28744 724.868429,1428.46231 725.457819,1427.72557 C726.047209,1426.98884 726.769201,1426.38472 727.623816,1425.91321 C727.741694,1425.88374 727.844836,1425.88374 727.933244,1425.91321 C728.375287,1426.06056 728.677344,1426.30368 728.839427,1426.64257 C729.001509,1426.98147 729.082549,1427.40141 729.082549,1427.90239 C729.02361,1428.46231 728.890999,1428.96328 728.684712,1429.40533 C728.478426,1429.84737 728.316346,1430.37781 728.198468,1430.99667 C727.697487,1431.82182 727.100739,1432.54381 726.408205,1433.16267 C725.715672,1433.78153 725.030517,1434.41511 724.352719,1435.06344 C724.470596,1435.47601 724.610574,1435.80017 724.772657,1436.03593 C724.934739,1436.27168 725.089451,1436.56638 725.236799,1436.92001 C725.325207,1437.03789 725.420982,1437.14103 725.524125,1437.22944 C725.627268,1437.31785 725.693574,1437.46519 725.723043,1437.67148 C726.135616,1438.26087 726.570285,1438.84288 727.027062,1439.41754 C727.483839,1439.99219 727.962711,1440.55947 728.463692,1441.11939 C728.787857,1441.35515 729.119384,1441.613 729.458283,1441.89296 C729.797182,1442.17292 730.128709,1442.43078 730.452873,1442.66653 C730.570751,1442.84335 730.673893,1443.02016 730.762301,1443.19698 C730.85071,1443.3738 730.880179,1443.62428 730.850709,1443.94845 C730.703362,1444.24314 730.497079,1444.44943 730.231853,1444.5673 C730.084506,1444.5673 729.959262,1444.5452 729.856119,1444.501 C729.752976,1444.45679 729.642467,1444.46416 729.524589,1444.5231 C728.28687,1443.66849 727.218617,1442.68864 726.319797,1441.58353 C725.420978,1440.47843 724.544274,1439.30703 723.689658,1438.06931 C723.689658,1437.95144 723.63072,1437.92197 723.512842,1437.98091 C723.571781,1437.83356 723.549679,1437.71568 723.446536,1437.62727 C723.343393,1437.53887 723.262353,1437.45046 723.203414,1437.36205 C723.056067,1437.12629 722.923456,1436.86844 722.805578,1436.58848 C722.6877,1436.30852 722.555089,1436.05066 722.407742,1435.81491 C722.289864,1435.75597 722.113049,1435.75597 721.877293,1435.81491 C721.641537,1435.87385 721.494192,1435.82964 721.435253,1435.6823 C721.405784,1435.6823 721.383682,1435.71177 721.368947,1435.7707 C721.354212,1435.82964 721.317376,1435.82964 721.258437,1435.7707 Z M717.722116,1383.16792 C717.751585,1383.07951 717.76632,1383.07951 717.76632,1383.16792 C717.76632,1383.25633 717.751585,1383.25633 717.722116,1383.16792 Z M723.336026,1383.60996 C723.365496,1383.52155 723.38023,1383.52155 723.38023,1383.60996 C723.38023,1383.69837 723.365496,1383.69837 723.336026,1383.60996 Z M721.435253,1398.55092 C721.464723,1398.52145 721.501559,1398.50672 721.545763,1398.50672 C721.589967,1398.50672 721.597335,1398.47725 721.567865,1398.41831 C721.479457,1398.38884 721.435253,1398.43304 721.435253,1398.55092 Z M711.224125,1408.2758 C711.283064,1408.1874 711.312533,1408.18003 711.312533,1408.2537 C711.312533,1408.32738 711.283064,1408.33474 711.224125,1408.2758 Z M715.290894,1412.51939 C715.290894,1412.48992 715.261425,1412.50466 715.202486,1412.56359 C715.202486,1412.53412 715.231955,1412.51939 715.290894,1412.51939 Z M715.556119,1412.652 L715.644527,1412.652 C715.703466,1412.59306 715.696098,1412.55623 715.622425,1412.54149 C715.548751,1412.52676 715.511915,1412.54886 715.511915,1412.6078 C715.541384,1412.6078 715.556119,1412.62253 715.556119,1412.652 Z M715.777139,1412.6078 C715.777139,1412.57833 715.74767,1412.59306 715.688731,1412.652 C715.688731,1412.62253 715.7182,1412.6078 715.777139,1412.6078 Z M721.921497,1420.52032 C721.921497,1420.46138 721.943599,1420.40981 721.987803,1420.3656 C722.032008,1420.3214 722.02464,1420.28456 721.965701,1420.25509 C721.965701,1420.28456 721.9436,1420.32877 721.899395,1420.38771 C721.855191,1420.44664 721.862558,1420.49085 721.921497,1420.52032 Z M716.042363,1431.48291 C716.101302,1431.39451 716.130771,1431.38714 716.130771,1431.46081 C716.130771,1431.53449 716.101302,1431.54185 716.042363,1431.48291 Z M714.406814,1432.01336 L714.495222,1432.01336 L714.495222,1431.92495 L714.406814,1431.92495 L714.406814,1432.01336 Z M721.788885,1435.7265 C721.729946,1435.66756 721.671008,1435.65283 721.612069,1435.6823 C721.5826,1435.74124 721.612069,1435.7707 721.700477,1435.7707 C721.788886,1435.7707 721.818355,1435.75597 721.788885,1435.7265 Z M721.833089,1435.7265 C721.892028,1435.63809 721.921497,1435.63072 721.921497,1435.7044 C721.921497,1435.77807 721.892028,1435.78544 721.833089,1435.7265 Z M722.805578,1398.63933 C722.864517,1398.55092 722.893986,1398.54355 722.893986,1398.61723 C722.893986,1398.6909 722.864517,1398.69827 722.805578,1398.63933 Z M716.617015,1401.77781 C716.675954,1401.71887 716.705423,1401.70414 716.705423,1401.73361 C716.646484,1401.73361 716.617015,1401.74834 716.617015,1401.77781 Z M716.395995,1404.25324 C716.454934,1404.22377 716.484403,1404.26797 716.484403,1404.38585 C716.454933,1404.35638 716.425464,1404.34165 716.395995,1404.34165 L716.395995,1404.25324 Z M723.336026,1419.90146 C723.336026,1419.87199 723.38023,1419.85726 723.468638,1419.85726 C723.468638,1419.88673 723.453904,1419.89409 723.424434,1419.87936 C723.394965,1419.86462 723.365496,1419.87199 723.336026,1419.90146 Z M722.49615,1429.93577 C722.555089,1429.87684 722.584558,1429.8621 722.584558,1429.89157 C722.525619,1429.89157 722.49615,1429.9063 722.49615,1429.93577 Z M722.49615,1430.02418 C722.49615,1429.99471 722.540353,1429.97998 722.628762,1429.97998 C722.628762,1430.00945 722.614027,1430.01681 722.584558,1430.00208 C722.555088,1429.98735 722.525619,1429.99471 722.49615,1430.02418 Z M722.849782,1437.67148 C722.790843,1437.61254 722.790843,1437.5315 722.849782,1437.42836 C722.908721,1437.32521 722.908721,1437.24417 722.849782,1437.18523 C722.96766,1437.2147 722.997129,1437.27364 722.93819,1437.36205 C722.879251,1437.45046 722.864516,1437.5536 722.893986,1437.67148 L722.849782,1437.67148 Z M722.849782,1437.67148 C722.879251,1437.70095 722.879251,1437.74515 722.849782,1437.80409 C722.820312,1437.80409 722.805578,1437.78199 722.805578,1437.73778 C722.805578,1437.69358 722.820312,1437.67148 722.849782,1437.67148 Z M730.497077,1442.71074 C730.556016,1442.6518 730.585485,1442.63706 730.585485,1442.66653 C730.526546,1442.66653 730.497077,1442.68127 730.497077,1442.71074 Z" id="n-copy-2" transform="translate(720.136760, 1409.783652) scale(-1, 1) rotate(-88.000000) translate(-720.136760, -1409.783652) "></path>
        </g>
    </g>
</svg>