<?xml version="1.0" encoding="UTF-8"?>
<svg width="17px" height="31px" viewBox="0 0 17 31" version="1.1" xmlns="http://www.w3.org/2000/svg" xmlns:xlink="http://www.w3.org/1999/xlink">
    <!-- Generator: Sketch 46.2 (44496) - http://www.bohemiancoding.com/sketch -->
    <title>Combined Shape</title>
    <desc>Created with Sketch.</desc>
    <defs></defs>
    <g id="Website" stroke="none" stroke-width="1" fill="none" fill-rule="evenodd">
        <path d="M12.5522907,5.07512628 C12.3038531,4.71859026 11.8908415,4.48528137 11.4233377,4.48528137 L11.4233377,4.48528137 L-7.13968026,4.48528137 C-7.89909298,4.48528137 -8.51471863,5.10090702 -8.51471863,5.86031974 L-8.51471863,5.86031974 L-8.51471863,5.86031974 C-8.51471863,6.61973246 -7.89909298,7.2353581 -7.13968026,7.2353581 L-7.13968026,7.2353581 L10.3920589,7.2353581 L10.3920589,24.7670973 C10.3920589,25.52651 11.0076845,26.1421356 11.7670973,26.1421356 C12.52651,26.1421356 13.1421356,25.52651 13.1421356,24.7670973 L13.1421356,6.20407933 C13.1421356,5.73657552 12.9088267,5.32356393 12.5522907,5.07512628 Z" id="Combined-Shape" fill="#FFFFFF" transform="translate(2.313708, 15.313708) rotate(-315.000000) translate(-2.313708, -15.313708) "></path>
    </g>
</svg>