<?xml version="1.0" encoding="utf-8"?>
<!-- Generator: Adobe Illustrator 16.2.1, SVG Export Plug-In . SVG Version: 6.00 Build 0)  -->
<!DOCTYPE svg PUBLIC "-//W3C//DTD SVG 1.1//EN" "http://www.w3.org/Graphics/SVG/1.1/DTD/svg11.dtd">
<svg version="1.1" id="Layer_1" xmlns="http://www.w3.org/2000/svg" xmlns:xlink="http://www.w3.org/1999/xlink" x="0px" y="0px"
	 width="103.495px" height="70.516px" viewBox="0 0 103.495 70.516" enable-background="new 0 0 103.495 70.516"
	 xml:space="preserve">
<g>
	<g>
		<linearGradient id="SVGID_1_" gradientUnits="userSpaceOnUse" x1="7.2847" y1="-24.3037" x2="7.2847" y2="73.8492">
			<stop  offset="0" style="stop-color:#F7EADF"/>
			<stop  offset="0.2213" style="stop-color:#F3D9D4"/>
			<stop  offset="1" style="stop-color:#C48F8B"/>
		</linearGradient>
		<path fill="url(#SVGID_1_)" d="M5.807,56.834c-0.497,0-0.899-0.402-0.899-0.899c0-1.353,0.538-2.667,1.477-3.607l0.106-0.104
			c0.516-0.516,1.234-0.888,2.076-1.075c0.48-0.109,0.966,0.197,1.074,0.684c0.107,0.484-0.198,0.966-0.684,1.073
			c-0.508,0.113-0.922,0.318-1.196,0.593l-0.105,0.104c-0.602,0.603-0.948,1.454-0.948,2.333
			C6.707,56.432,6.304,56.834,5.807,56.834z"/>
	</g>
	<g>
		<linearGradient id="SVGID_2_" gradientUnits="userSpaceOnUse" x1="52.2251" y1="-24.3037" x2="52.2251" y2="73.8492">
			<stop  offset="0" style="stop-color:#F7EADF"/>
			<stop  offset="0.2213" style="stop-color:#F3D9D4"/>
			<stop  offset="1" style="stop-color:#C48F8B"/>
		</linearGradient>
		<path fill="url(#SVGID_2_)" d="M12.286,70.516c-0.237,0-0.465-0.093-0.634-0.261c-0.17-0.168-0.267-0.398-0.267-0.639
			l-0.006-8.601H9.989c-0.306,0-0.615-0.027-0.92-0.082c-0.487-0.088-0.812-0.554-0.727-1.041c0.085-0.488,0.55-0.818,1.038-0.732
			c0.158,0.027,0.326,0.042,0.504,0.042h84.456c0.837,0,1.654-0.336,2.24-0.923c0.621-0.769,0.923-1.525,0.923-2.24
			c0-0.84-0.336-1.657-0.923-2.242c-0.768-0.621-1.523-0.924-2.24-0.924H9.885c-0.837,0-1.616,0.299-2.136,0.819L7.62,53.821
			c-0.607,0.771-0.899,1.514-0.899,2.218c0,0.497-0.403,0.899-0.9,0.899s-0.899-0.402-0.899-0.899c0-1.13,0.438-2.275,1.27-3.312
			c0.021-0.025,0.097-0.118,0.12-0.142l0.165-0.165c0.855-0.855,2.098-1.347,3.409-1.347h84.456c0.335,0,0.671,0.039,1.005,0.114
			c0.162-0.063,0.343-0.079,0.523-0.04c0.866,0.193,1.58,0.58,2.182,1.181c0.939,0.941,1.479,2.255,1.479,3.606
			s-0.539,2.665-1.479,3.604c-0.938,0.938-2.252,1.477-3.605,1.477h-1.389v8.594c0,0.26-0.112,0.506-0.308,0.677
			c-0.164,0.144-0.383,0.229-0.601,0.229h-4.176c-0.396,0-0.744-0.258-0.86-0.636l-2.721-8.864h-64.35l-2.646,8.822
			c-0.113,0.378-0.46,0.638-0.854,0.641l-4.248,0.037C12.291,70.516,12.288,70.516,12.286,70.516z M88.638,68.716h2.618v-7.714
			h-4.989L88.638,68.716z M13.18,61.002l0.006,7.706l2.678-0.023l2.304-7.683H13.18z"/>
	</g>
	<g>
		<linearGradient id="SVGID_3_" gradientUnits="userSpaceOnUse" x1="22.5557" y1="36.0811" x2="22.5557" y2="36.0811">
			<stop  offset="0" style="stop-color:#F7EADF"/>
			<stop  offset="0.2213" style="stop-color:#F3D9D4"/>
			<stop  offset="1" style="stop-color:#C48F8B"/>
		</linearGradient>
		<path fill="url(#SVGID_3_)" d="M22.556,36.081"/>
	</g>
	<g>
		<linearGradient id="SVGID_4_" gradientUnits="userSpaceOnUse" x1="51.8716" y1="-24.3037" x2="51.8716" y2="73.8492">
			<stop  offset="0" style="stop-color:#F7EADF"/>
			<stop  offset="0.2213" style="stop-color:#F3D9D4"/>
			<stop  offset="1" style="stop-color:#C48F8B"/>
		</linearGradient>
		<path fill="url(#SVGID_4_)" d="M91.641,22.679c-0.422,0-0.798-0.298-0.882-0.728l-0.363-1.858
			c-0.947-4.839-3.439-9.153-7.207-12.477c-4.12-3.676-9.427-5.698-14.946-5.698H35.357c-5.52,0-10.828,2.024-14.949,5.7
			c-3.811,3.362-6.266,7.68-7.102,12.488l-0.317,1.826c-0.085,0.49-0.553,0.818-1.041,0.732c-0.489-0.085-0.817-0.551-0.732-1.041
			l0.317-1.826c0.907-5.216,3.562-9.894,7.68-13.526c4.448-3.967,10.183-6.153,16.145-6.153h32.885
			c5.962,0,11.694,2.185,16.142,6.151c4.062,3.584,6.754,8.246,7.777,13.478l0.363,1.858c0.096,0.488-0.223,0.961-0.71,1.057
			C91.756,22.673,91.698,22.679,91.641,22.679z"/>
	</g>
	<g>
		<linearGradient id="SVGID_5_" gradientUnits="userSpaceOnUse" x1="91.7378" y1="-24.3037" x2="91.7378" y2="73.8492">
			<stop  offset="0" style="stop-color:#F7EADF"/>
			<stop  offset="0.2213" style="stop-color:#F3D9D4"/>
			<stop  offset="1" style="stop-color:#C48F8B"/>
		</linearGradient>
		<path fill="url(#SVGID_5_)" d="M98.152,42.368c-0.263,0-0.522-0.113-0.699-0.332c-0.308-0.379-0.258-0.934,0.112-1.251
			l0.755-0.647c0.859-0.738,1.616-1.655,2.13-2.582c0.914-1.698,1.329-3.369,1.229-4.954c0.001-2.586-1.084-5.182-2.905-7.001
			c-1.874-1.876-4.375-2.908-7.042-2.908c-0.533,0-1.056,0.095-1.546,0.191c-0.058,0.012-0.116,0.018-0.175,0.018l-0.267,0.009
			c-0.584,0.098-1.082,0.274-1.533,0.451c-0.081,0.032-0.166,0.052-0.252,0.06l-0.126,0.05c-1.09,0.435-2.206,1.191-3.145,2.13
			c-1.875,1.873-2.907,4.374-2.907,7.042c0,0.523,0,1.064,0.104,1.626c0.02,0.143,0.041,0.22,0.061,0.279
			c0.152,0.474-0.107,0.98-0.58,1.133c-0.475,0.155-0.98-0.108-1.133-0.581c-0.047-0.146-0.098-0.334-0.125-0.553
			c-0.128-0.674-0.128-1.356-0.128-1.904c0-3.148,1.22-6.102,3.435-8.315c1.108-1.107,2.439-2.005,3.75-2.528l0.278-0.11
			c0.084-0.034,0.174-0.055,0.265-0.062c0.485-0.185,1.063-0.378,1.738-0.491l0.127-0.021c0.05-0.008,0.1-0.012,0.149-0.012h0.2
			c0.533-0.104,1.148-0.209,1.809-0.209c3.148,0,6.102,1.22,8.315,3.435c2.183,2.183,3.434,5.178,3.431,8.218
			c0.12,1.868-0.366,3.864-1.447,5.874c-0.621,1.119-1.521,2.211-2.537,3.085l-0.138,0.118c-0.053,0.077-0.118,0.147-0.197,0.208
			l-0.459,0.353C98.536,42.308,98.344,42.368,98.152,42.368z"/>
	</g>
	<g>
		<linearGradient id="SVGID_6_" gradientUnits="userSpaceOnUse" x1="46.9106" y1="-24.3037" x2="46.9106" y2="73.8492">
			<stop  offset="0" style="stop-color:#F7EADF"/>
			<stop  offset="0.2213" style="stop-color:#F3D9D4"/>
			<stop  offset="1" style="stop-color:#C48F8B"/>
		</linearGradient>
		<path fill="url(#SVGID_6_)" d="M4.797,41.822c-0.159,0-0.318-0.041-0.461-0.126c0-0.001,0-0.001,0-0.001H4.335
			c-0.032-0.02-0.063-0.041-0.094-0.064c-0.002-0.002-0.004-0.004-0.006-0.006c-0.007-0.005-0.013-0.01-0.019-0.015
			c-1.095-0.923-1.982-1.947-2.641-3.043C0.525,36.674,0,34.689,0,32.643c0-3.19,1.229-6.176,3.461-8.407
			c1.867-1.868,4.434-3.062,7.225-3.36l0.499-0.054l0.081-0.495c0.89-5.432,3.597-10.317,7.829-14.128
			C23.62,2.199,29.394,0,35.357,0h32.989c5.963,0,11.74,2.202,16.267,6.203c4.03,3.525,6.811,8.546,7.826,14.134l0.088,0.485
			l0.49,0.053c0.495,0.053,0.853,0.497,0.799,0.991c-0.053,0.494-0.504,0.845-0.99,0.799l-1.159-0.125
			c-0.397-0.043-0.718-0.341-0.79-0.733l-0.209-1.147c-0.942-5.188-3.516-9.843-7.243-13.104C79.225,3.843,73.87,1.8,68.347,1.8
			H35.357c-5.524,0-10.874,2.039-15.064,5.742c-3.919,3.528-6.429,8.051-7.251,13.075l-0.054,0.327
			c2.725,0.254,5.246,1.433,7.196,3.383c2.183,2.182,3.435,5.213,3.435,8.315c0,0.548,0,1.231-0.135,1.957
			c-0.019,0.154-0.065,0.335-0.115,0.493c-0.147,0.476-0.652,0.739-1.127,0.592c-0.475-0.148-0.739-0.653-0.592-1.128
			c0.022-0.069,0.045-0.148,0.057-0.238c0.112-0.61,0.112-1.152,0.112-1.676c0-2.629-1.061-5.195-2.908-7.042
			c-1.874-1.876-4.375-2.908-7.043-2.908c-2.628,0-5.194,1.06-7.042,2.908c-1.875,1.874-2.908,4.375-2.908,7.042
			c0,1.719,0.425,3.415,1.228,4.906c0.521,0.938,1.268,1.84,2.215,2.672c0.006,0.004,0.012,0.009,0.017,0.014
			c0.377,0.318,0.428,0.879,0.115,1.26C5.314,41.71,5.057,41.822,4.797,41.822z"/>
	</g>
	<g>
		<linearGradient id="SVGID_7_" gradientUnits="userSpaceOnUse" x1="22.5098" y1="36.1855" x2="22.5098" y2="36.1855">
			<stop  offset="0" style="stop-color:#F7EADF"/>
			<stop  offset="0.2213" style="stop-color:#F3D9D4"/>
			<stop  offset="1" style="stop-color:#C48F8B"/>
		</linearGradient>
		<path fill="url(#SVGID_7_)" d="M22.51,36.186"/>
	</g>
	<g>
		<linearGradient id="SVGID_8_" gradientUnits="userSpaceOnUse" x1="88.5923" y1="-24.3037" x2="88.5923" y2="73.8492">
			<stop  offset="0" style="stop-color:#F7EADF"/>
			<stop  offset="0.2213" style="stop-color:#F3D9D4"/>
			<stop  offset="1" style="stop-color:#C48F8B"/>
		</linearGradient>
		<path fill="url(#SVGID_8_)" d="M92.037,70.398h-4.076c-0.397,0-0.748-0.261-0.862-0.641l-2.814-9.383
			c-0.081-0.272-0.029-0.568,0.141-0.796c0.17-0.229,0.438-0.363,0.722-0.363h6.891c0.497,0,0.9,0.403,0.9,0.9v9.383
			C92.938,69.996,92.534,70.398,92.037,70.398z M88.631,68.599h2.506v-7.583h-4.78L88.631,68.599z"/>
	</g>
	<g>
		<linearGradient id="SVGID_9_" gradientUnits="userSpaceOnUse" x1="15.7383" y1="-24.3037" x2="15.7383" y2="73.8492">
			<stop  offset="0" style="stop-color:#F7EADF"/>
			<stop  offset="0.2213" style="stop-color:#F3D9D4"/>
			<stop  offset="1" style="stop-color:#C48F8B"/>
		</linearGradient>
		<path fill="url(#SVGID_9_)" d="M16.369,70.398h-4.076c-0.497,0-0.9-0.402-0.9-0.899v-9.383c0-0.497,0.403-0.9,0.9-0.9h6.892
			c0.284,0,0.552,0.135,0.722,0.363c0.17,0.228,0.222,0.523,0.14,0.796l-2.814,9.383C17.117,70.138,16.767,70.398,16.369,70.398z
			 M13.192,68.599H15.7l2.274-7.583h-4.782V68.599z"/>
	</g>
	<g>
		<linearGradient id="SVGID_10_" gradientUnits="userSpaceOnUse" x1="7.937" y1="-24.3037" x2="7.937" y2="73.8492">
			<stop  offset="0" style="stop-color:#F7EADF"/>
			<stop  offset="0.2213" style="stop-color:#F3D9D4"/>
			<stop  offset="1" style="stop-color:#C48F8B"/>
		</linearGradient>
		<path fill="url(#SVGID_10_)" d="M8.542,60.763c-0.102,0-0.203-0.018-0.304-0.054c-0.549-0.196-1.053-0.481-1.496-0.846
			c-0.379-0.311-0.439-0.867-0.137-1.252c0.304-0.386,0.859-0.457,1.249-0.162c0.325,0.245,0.62,0.418,0.92,0.538
			c0.395,0.096,0.688,0.451,0.688,0.875C9.462,60.366,9.036,60.744,8.542,60.763z"/>
	</g>
	<g>
		<linearGradient id="SVGID_11_" gradientUnits="userSpaceOnUse" x1="52.1128" y1="-24.3037" x2="52.1128" y2="73.8492">
			<stop  offset="0" style="stop-color:#F7EADF"/>
			<stop  offset="0.2213" style="stop-color:#F3D9D4"/>
			<stop  offset="1" style="stop-color:#C48F8B"/>
		</linearGradient>
		<path fill="url(#SVGID_11_)" d="M54.566,22.014c-0.238,0-0.513-0.107-0.682-0.276l-1.718-1.72l-1.721,1.719
			c-0.266,0.267-0.67,0.338-1.01,0.182c-0.421-0.192-0.661-0.473-0.715-0.833c-0.012-0.081-0.013-0.163-0.002-0.244
			c0.022-0.181,0.101-0.361,0.232-0.534c0.024-0.033,0.052-0.063,0.08-0.093l1.663-1.664l-1.718-1.719
			c-0.262-0.262-0.336-0.656-0.188-0.996l0.046-0.105c0.118-0.271,0.362-0.467,0.652-0.523c0.292-0.056,0.59,0.033,0.802,0.239
			l1.877,1.844l1.718-1.719c0.169-0.169,0.398-0.264,0.637-0.264h0.001c0.239,0,0.469,0.096,0.637,0.265l0.092,0.093
			c0.351,0.352,0.35,0.92-0.001,1.271l-1.72,1.72l1.72,1.719c0.262,0.263,0.337,0.659,0.188,0.998l-0.046,0.104
			C55.247,21.803,54.924,22.014,54.566,22.014z"/>
	</g>
	<g>
		<linearGradient id="SVGID_12_" gradientUnits="userSpaceOnUse" x1="35.0376" y1="-24.3037" x2="35.0376" y2="73.8492">
			<stop  offset="0" style="stop-color:#F7EADF"/>
			<stop  offset="0.2213" style="stop-color:#F3D9D4"/>
			<stop  offset="1" style="stop-color:#C48F8B"/>
		</linearGradient>
		<path fill="url(#SVGID_12_)" d="M37.445,22.014c-0.238,0-0.513-0.107-0.682-0.275l-1.719-1.721l-1.72,1.719
			c-0.177,0.178-0.424,0.272-0.671,0.264c-0.552-0.021-0.987-0.476-0.97-1.013c0.007-0.229,0.102-0.446,0.264-0.608l1.73-1.726
			l-1.718-1.718c-0.262-0.262-0.336-0.656-0.188-0.996l0.046-0.105c0.118-0.271,0.361-0.467,0.651-0.523
			c0.29-0.055,0.591,0.032,0.802,0.238l1.773,1.74l1.718-1.719c0.17-0.17,0.434-0.271,0.641-0.264
			c0.24,0.001,0.47,0.098,0.638,0.269l0.092,0.093c0.347,0.352,0.345,0.918-0.005,1.268l-1.719,1.719l1.719,1.719
			c0.261,0.261,0.336,0.654,0.189,0.993l-0.046,0.105C38.129,21.801,37.805,22.014,37.445,22.014z"/>
	</g>
	<g>
		<linearGradient id="SVGID_13_" gradientUnits="userSpaceOnUse" x1="69.1753" y1="-24.3037" x2="69.1753" y2="73.8492">
			<stop  offset="0" style="stop-color:#F7EADF"/>
			<stop  offset="0.2213" style="stop-color:#F3D9D4"/>
			<stop  offset="1" style="stop-color:#C48F8B"/>
		</linearGradient>
		<path fill="url(#SVGID_13_)" d="M71.583,22.014c-0.238,0-0.512-0.107-0.681-0.275l-1.721-1.721l-1.719,1.719
			c-0.178,0.178-0.426,0.272-0.672,0.264c-0.544-0.021-0.97-0.454-0.97-0.984c0-0.239,0.096-0.468,0.265-0.637l1.729-1.726
			l-1.717-1.718c-0.26-0.26-0.335-0.651-0.191-0.989l0.045-0.105c0.116-0.273,0.36-0.472,0.651-0.529s0.593,0.03,0.805,0.237
			l1.773,1.74L70.9,15.57c0.338-0.338,0.936-0.338,1.273,0l0.092,0.092c0.352,0.352,0.352,0.922,0,1.272l-1.72,1.72l1.72,1.719
			c0.262,0.263,0.337,0.659,0.188,0.998l-0.046,0.104C72.264,21.803,71.94,22.014,71.583,22.014z"/>
	</g>
	<g>
		<linearGradient id="SVGID_14_" gradientUnits="userSpaceOnUse" x1="51.957" y1="-24.3037" x2="51.957" y2="73.8492">
			<stop  offset="0" style="stop-color:#F7EADF"/>
			<stop  offset="0.2213" style="stop-color:#F3D9D4"/>
			<stop  offset="1" style="stop-color:#C48F8B"/>
		</linearGradient>
		<path fill="url(#SVGID_14_)" d="M96.747,52.862H7.167c-3.4,0-6.166-2.766-6.166-6.166s2.766-6.167,6.166-6.167h89.58
			c3.4,0,6.166,2.767,6.166,6.167S100.147,52.862,96.747,52.862z M7.167,42.529c-2.297,0-4.166,1.869-4.166,4.167
			c0,2.297,1.869,4.166,4.166,4.166h89.58c2.297,0,4.166-1.869,4.166-4.166c0-2.298-1.869-4.167-4.166-4.167H7.167z"/>
	</g>
</g>
</svg>
