<?xml version="1.0" encoding="utf-8"?>
<!-- Generator: Adobe Illustrator 16.2.1, SVG Export Plug-In . SVG Version: 6.00 Build 0)  -->
<!DOCTYPE svg PUBLIC "-//W3C//DTD SVG 1.1//EN" "http://www.w3.org/Graphics/SVG/1.1/DTD/svg11.dtd">
<svg version="1.1" id="Layer_1" xmlns="http://www.w3.org/2000/svg" xmlns:xlink="http://www.w3.org/1999/xlink" x="0px" y="0px"
	 width="93.424px" height="105.719px" viewBox="0 0 93.424 105.719" enable-background="new 0 0 93.424 105.719"
	 xml:space="preserve">
<g>
	<g>
		<linearGradient id="SVGID_1_" gradientUnits="userSpaceOnUse" x1="46.499" y1="-1.1602" x2="46.499" y2="108.8398">
			<stop  offset="0" style="stop-color:#F7EADF"/>
			<stop  offset="0.2213" style="stop-color:#F3D9D4"/>
			<stop  offset="1" style="stop-color:#C48F8B"/>
		</linearGradient>
		<path fill="url(#SVGID_1_)" d="M46.434,8.748c-0.652,0-1.057-0.541-1.057-1.041l0.132-6.643c0-0.198,0.038-0.379,0.118-0.535
			c0.104-0.202,0.281-0.358,0.494-0.437c0.284-0.104,0.681-0.182,1.101,0.113c0.168,0.117,0.287,0.286,0.345,0.477
			c0.037,0.116,0.055,0.243,0.055,0.377l-0.132,6.643C47.489,8.341,46.941,8.748,46.434,8.748z"/>
	</g>
	<g>
		<linearGradient id="SVGID_2_" gradientUnits="userSpaceOnUse" x1="53.3555" y1="-1.1602" x2="53.3555" y2="108.8398">
			<stop  offset="0" style="stop-color:#F7EADF"/>
			<stop  offset="0.2213" style="stop-color:#F3D9D4"/>
			<stop  offset="1" style="stop-color:#C48F8B"/>
		</linearGradient>
		<path fill="url(#SVGID_2_)" d="M50.898,12.267c-0.005,0-0.011,0-0.016,0c-0.25-0.005-0.484-0.111-0.654-0.279l-0.009,0.008
			c-0.107-0.108-0.359-0.363-0.359-0.77c0-0.267,0.113-0.524,0.319-0.728l4.87-4.556c0.073-0.07,0.329-0.319,0.744-0.319
			c0.273,0,0.537,0.113,0.742,0.319c0.169,0.168,0.314,0.482,0.314,0.722c0,0.267-0.113,0.524-0.319,0.728l-4.872,4.555
			c-0.163,0.152-0.378,0.263-0.591,0.304C51.013,12.261,50.956,12.267,50.898,12.267z"/>
	</g>
	<g>
		<linearGradient id="SVGID_3_" gradientUnits="userSpaceOnUse" x1="39.5918" y1="-1.1602" x2="39.5918" y2="108.8398">
			<stop  offset="0" style="stop-color:#F7EADF"/>
			<stop  offset="0.2213" style="stop-color:#F3D9D4"/>
			<stop  offset="1" style="stop-color:#C48F8B"/>
		</linearGradient>
		<path fill="url(#SVGID_3_)" d="M42.084,12.181c-0.228,0-0.447-0.086-0.615-0.242l-5.008-4.684
			c-0.218-0.204-0.321-0.504-0.273-0.799l0.023-0.15c0.03-0.19,0.121-0.366,0.259-0.501c0.415-0.406,1.069-0.4,1.477,0.007
			l4.743,4.688c0.171,0.169,0.318,0.485,0.318,0.726c0,0.143-0.034,0.359-0.194,0.582c-0.151,0.21-0.385,0.344-0.643,0.369
			C42.142,12.18,42.112,12.181,42.084,12.181z"/>
	</g>
	<g>
		<linearGradient id="SVGID_4_" gradientUnits="userSpaceOnUse" x1="71.2466" y1="-1.1602" x2="71.2466" y2="108.8399">
			<stop  offset="0" style="stop-color:#F7EADF"/>
			<stop  offset="0.2213" style="stop-color:#F3D9D4"/>
			<stop  offset="1" style="stop-color:#C48F8B"/>
		</linearGradient>
		<path fill="url(#SVGID_4_)" d="M73.455,105.718h-0.126c-0.551,0-0.958-0.32-1.062-0.836l-0.017-0.08
			c-0.092-0.388,0.065-0.815,0.406-1.02l-0.005-0.008c0.039-0.026,0.077-0.049,0.109-0.065c0.062-0.032,0.126-0.057,0.193-0.073
			l8.601-2.158l-7.229-29.908h-0.734c-7.891,0-16.543-11.756-20.575-27.952c-1.28-4.938-3.817-17.703-3.948-22.883
			c0.002-0.431,0.221-0.907,0.827-1.037c23.863-5.765,23.863-5.765,23.972-5.765c0.325,0,0.648,0.147,0.842,0.386
			c0.045,0.055,0.083,0.115,0.113,0.18c2.146,4.492,5.839,16.762,7.218,22.08c1.997,8.425,2.462,16.524,1.313,22.824
			c-1.152,6.082-3.562,10.115-6.97,11.669l-0.198,0.091l7.366,29.916l8.581-1.888c0.006-0.002,0.011-0.004,0.016-0.006l0.002,0.003
			l0.028-0.007c0.369-0.092,0.776,0.048,0.993,0.349l0.013-0.009c0.049,0.061,0.089,0.123,0.115,0.174
			c0.038,0.074,0.065,0.153,0.082,0.234l0.018,0.083c0.091,0.388-0.071,0.813-0.423,1.013v0.001
			c-0.032,0.021-0.084,0.05-0.117,0.066c-0.059,0.028-0.12,0.051-0.184,0.065l-19.012,4.535
			C73.596,105.709,73.525,105.718,73.455,105.718z M52.588,32.533l0.049,0.248c0.629,3.216,1.348,6.372,1.873,8.677l0.369,1.625
			c3.715,14.814,11.732,26.434,18.25,26.434c0.452,0,0.896-0.057,1.319-0.169c3.126-0.804,5.439-4.487,6.521-10.373
			c1.176-6.193,0.719-13.802-1.321-22.007c-0.528-2.218-1.589-6.015-2.771-9.917l-0.071-0.235L52.588,32.533z M51.036,21.449
			l0.014,0.219c0.115,1.927,0.531,4.472,0.972,7.166l0.261,1.608l24.025-5.603l-0.093-0.274c-0.955-2.829-2.063-6.02-3.043-8.232
			l-0.089-0.2L51.036,21.449z"/>
	</g>
	<g>
		<linearGradient id="SVGID_5_" gradientUnits="userSpaceOnUse" x1="74.8672" y1="-1.1602" x2="74.8672" y2="108.8399">
			<stop  offset="0" style="stop-color:#F7EADF"/>
			<stop  offset="0.2213" style="stop-color:#F3D9D4"/>
			<stop  offset="1" style="stop-color:#C48F8B"/>
		</linearGradient>
		<path fill="url(#SVGID_5_)" d="M74.995,61.405h-0.057c-0.114,0-0.228-0.022-0.334-0.064l-0.127-0.051
			c-0.108-0.044-0.208-0.108-0.292-0.189c-0.295-0.286-0.382-0.752-0.217-1.161c1.075-2.601,1.831-12.381-1.177-24.274
			c-0.184-0.438,0.004-0.944,0.428-1.156c0.094-0.047,0.192-0.076,0.291-0.088c0.009-0.002,0.018-0.004,0.026-0.006l0.077-0.015
			c0.363-0.08,0.759,0.057,0.972,0.354l0.012-0.008c0.048,0.061,0.087,0.122,0.113,0.173c0.032,0.062,0.058,0.129,0.074,0.198
			c3.216,13.005,2.364,22.644,1.071,25.664C75.715,61.112,75.355,61.405,74.995,61.405z"/>
	</g>
	<g>
		<linearGradient id="SVGID_6_" gradientUnits="userSpaceOnUse" x1="22.228" y1="-1.1602" x2="22.228" y2="108.8398">
			<stop  offset="0" style="stop-color:#F7EADF"/>
			<stop  offset="0.2213" style="stop-color:#F3D9D4"/>
			<stop  offset="1" style="stop-color:#C48F8B"/>
		</linearGradient>
		<path fill="url(#SVGID_6_)" d="M20.062,105.589h-0.125c-0.07,0-0.141-0.009-0.209-0.025L0.745,101.03
			c-0.108-0.025-0.211-0.071-0.303-0.135c-0.351-0.243-0.48-0.713-0.434-1.062C0.01,99.832,0.01,99.83,0.01,99.827
			c0.003-0.019,0.006-0.037,0.01-0.055c0.091-0.441,0.486-0.743,0.933-0.717c0.1-0.013,0.225-0.01,0.338,0.017l8.551,2.008
			l7.5-29.922l-0.204-0.09c-3.457-1.52-5.932-5.661-6.965-11.663c-1.217-6.682-0.751-14.793,1.314-22.829
			c1.381-5.323,5.081-17.605,7.233-22.109c0.119-0.249,0.346-0.43,0.615-0.49c0.192-0.042,0.39-0.047,0.543-0.018l23.726,5.733
			c0.769,0.16,0.854,0.787,0.854,1.049c-0.13,5.008-2.638,17.826-3.946,22.872c-2.128,8.412-5.482,15.833-9.445,20.889
			c-3.69,4.689-7.436,7.067-11.132,7.067H19.2l-7.363,29.912l8.562,2.017c0.131,0.03,0.252,0.09,0.356,0.173
			c0.331,0.266,0.438,0.758,0.37,1.087c-0.009,0.04-0.02,0.08-0.033,0.119c-0.15,0.421-0.591,0.675-0.948,0.708
			C20.117,105.587,20.09,105.589,20.062,105.589z M16.46,26.816l-0.073,0.232c-1.181,3.762-2.244,7.565-2.774,9.925
			c-1.947,7.833-2.415,15.64-1.32,22c1.082,5.883,3.398,9.57,6.521,10.375c3.146,0.81,6.904-1.403,10.558-6.222
			c3.833-4.965,7.031-12.079,9.011-20.037c0.684-2.431,1.517-6.595,2.244-10.309l0.048-0.248L16.46,26.816z M17.088,24.84
			l24.022,5.603l0.261-1.602c0.442-2.705,0.859-5.251,0.973-7.173l0.014-0.219l-22.049-5.316l-0.089,0.2
			c-0.978,2.21-2.085,5.402-3.039,8.232L17.088,24.84z"/>
	</g>
	<g>
		<linearGradient id="SVGID_7_" gradientUnits="userSpaceOnUse" x1="18.5532" y1="-1.1602" x2="18.5532" y2="108.8398">
			<stop  offset="0" style="stop-color:#F7EADF"/>
			<stop  offset="0.2213" style="stop-color:#F3D9D4"/>
			<stop  offset="1" style="stop-color:#C48F8B"/>
		</linearGradient>
		<path fill="url(#SVGID_7_)" d="M18.458,61.403c-0.177,0-0.381-0.057-0.528-0.155c-0.037-0.024-0.073-0.053-0.107-0.084
			c-0.11-0.1-0.209-0.235-0.293-0.402c-1.335-3.301-1.885-13.658,1.076-25.621c0.032-0.133,0.095-0.256,0.182-0.36
			c0.271-0.325,0.723-0.371,0.81-0.377c0.155-0.008,0.309,0.02,0.447,0.087c0.102,0.048,0.176,0.096,0.227,0.132
			c0.324,0.226,0.463,0.636,0.343,1.013c-2.911,11.495-2.444,21.126-1.188,24.303c0.17,0.277,0.179,0.631,0.02,0.915
			c-0.101,0.181-0.258,0.32-0.443,0.397c-0.023,0.013-0.047,0.024-0.062,0.03l-0.153,0.061
			C18.682,61.382,18.57,61.403,18.458,61.403z"/>
	</g>
	<g>
		<linearGradient id="SVGID_8_" gradientUnits="userSpaceOnUse" x1="45.791" y1="90.3857" x2="45.791" y2="90.3857">
			<stop  offset="0" style="stop-color:#F7EADF"/>
			<stop  offset="0.2213" style="stop-color:#F3D9D4"/>
			<stop  offset="1" style="stop-color:#C48F8B"/>
		</linearGradient>
		<path fill="url(#SVGID_8_)" d="M45.791,90.386"/>
	</g>
	<g>
		<linearGradient id="SVGID_9_" gradientUnits="userSpaceOnUse" x1="45.625" y1="-1.1602" x2="45.625" y2="108.8398">
			<stop  offset="0" style="stop-color:#F7EADF"/>
			<stop  offset="0.2213" style="stop-color:#F3D9D4"/>
			<stop  offset="1" style="stop-color:#C48F8B"/>
		</linearGradient>
		<path fill="url(#SVGID_9_)" d="M46.152,91.095c-0.137,0-0.273-0.031-0.399-0.094l-0.497-0.246
			c-1.515-0.751-9.146-4.839-10.715-11.657c-1.21-4.79,1.301-8.19,4.147-9.314c0.036-0.015,0.147-0.056,0.186-0.065l0.329-0.082
			c0.463-0.12,0.995-0.258,1.693-0.258c1.937,0,3.767,0.99,5.131,2.749c1.328-1.777,3.13-2.765,5.131-2.765
			c0.727,0,1.463,0.136,2.188,0.403c1.464,0.543,2.725,1.617,3.551,3.025c0.252,0.429,0.108,0.98-0.32,1.232
			c-0.429,0.251-0.979,0.107-1.231-0.32c-0.617-1.052-1.549-1.851-2.624-2.249c-2.184-0.807-4.334,0.126-5.722,2.458
			c-0.186,0.271-0.468,0.526-0.962,0.526c-0.404,0-0.73-0.183-0.972-0.543c-1.079-1.736-2.594-2.717-4.169-2.717
			c-0.47,0-0.831,0.093-1.251,0.201l-0.275,0.069c-2.191,0.898-4.02,3.504-3.079,7.226c1.391,6.047,8.377,9.78,9.764,10.467
			l0.111,0.056l0.114-0.053c1.454-0.672,5.882-2.717,8.174-6.535c0.256-0.427,0.808-0.564,1.234-0.309s0.564,0.809,0.309,1.234
			c-2.577,4.295-7.383,6.515-8.963,7.244l-0.506,0.232C46.409,91.066,46.28,91.095,46.152,91.095z"/>
	</g>
	<g>
		<linearGradient id="SVGID_10_" gradientUnits="userSpaceOnUse" x1="56.853" y1="-1.1602" x2="56.853" y2="108.8398">
			<stop  offset="0" style="stop-color:#F7EADF"/>
			<stop  offset="0.2213" style="stop-color:#F3D9D4"/>
			<stop  offset="1" style="stop-color:#C48F8B"/>
		</linearGradient>
		<path fill="url(#SVGID_10_)" d="M56.623,81.146c-0.048,0-0.097-0.004-0.146-0.013c-0.441-0.072-0.755-0.454-0.754-0.888
			c0-0.048,0.004-0.097,0.012-0.146c0.248-1.515,0.248-1.515,0.452-3.716c0.044-0.483,0.468-0.845,0.949-0.815
			c0.484,0.028,0.859,0.437,0.847,0.922c-0.038,1.451-0.149,2.069-0.316,3.004c-0.047,0.262-0.099,0.551-0.155,0.896
			C57.438,80.832,57.057,81.146,56.623,81.146z"/>
	</g>
</g>
</svg>
