<?xml version="1.0" encoding="utf-8"?>
<!-- Generator: Adobe Illustrator 16.2.1, SVG Export Plug-In . SVG Version: 6.00 Build 0)  -->
<!DOCTYPE svg PUBLIC "-//W3C//DTD SVG 1.1//EN" "http://www.w3.org/Graphics/SVG/1.1/DTD/svg11.dtd">
<svg version="1.1" id="Layer_1" xmlns="http://www.w3.org/2000/svg" xmlns:xlink="http://www.w3.org/1999/xlink" x="0px" y="0px"
	 width="110.33px" height="110.738px" viewBox="0 0 110.33 110.738" enable-background="new 0 0 110.33 110.738"
	 xml:space="preserve">
<g>
	<g>
		<linearGradient id="SVGID_1_" gradientUnits="userSpaceOnUse" x1="55.165" y1="6.7207" x2="55.165" y2="116.7207">
			<stop  offset="0" style="stop-color:#F7EADF"/>
			<stop  offset="0.2213" style="stop-color:#F3D9D4"/>
			<stop  offset="1" style="stop-color:#C48F8B"/>
		</linearGradient>
		<path fill="url(#SVGID_1_)" d="M109.33,103.5H1c-0.552,0-1-0.448-1-1V51.75c0-0.276,0.114-0.541,0.316-0.729l54.16-50.75
			c0.384-0.36,0.982-0.361,1.367,0l54.17,50.75c0.202,0.189,0.316,0.454,0.316,0.73v50.75
			C110.33,103.052,109.882,103.5,109.33,103.5z M2,101.5h106.33V52.184L55.16,2.37L2,52.184V101.5z"/>
	</g>
	<g>
		<linearGradient id="SVGID_2_" gradientUnits="userSpaceOnUse" x1="65.3315" y1="6.7207" x2="65.3315" y2="116.7207">
			<stop  offset="0" style="stop-color:#F7EADF"/>
			<stop  offset="0.2213" style="stop-color:#F3D9D4"/>
			<stop  offset="1" style="stop-color:#C48F8B"/>
		</linearGradient>
		<path fill="url(#SVGID_2_)" d="M108.832,53.75h-87c-0.552,0-1-0.448-1-1s0.448-1,1-1h87c0.552,0,1,0.448,1,1
			S109.384,53.75,108.832,53.75z"/>
	</g>
	<g>
		<linearGradient id="SVGID_3_" gradientUnits="userSpaceOnUse" x1="11.7056" y1="6.7207" x2="11.7056" y2="116.7207">
			<stop  offset="0" style="stop-color:#F7EADF"/>
			<stop  offset="0.2213" style="stop-color:#F3D9D4"/>
			<stop  offset="1" style="stop-color:#C48F8B"/>
		</linearGradient>
		<path fill="url(#SVGID_3_)" d="M17.081,53.75H6.33c-0.552,0-1-0.448-1-1s0.448-1,1-1h10.751c0.552,0,1,0.448,1,1
			S17.633,53.75,17.081,53.75z"/>
	</g>
	<g>
		<linearGradient id="SVGID_4_" gradientUnits="userSpaceOnUse" x1="55.165" y1="6.7207" x2="55.165" y2="116.7207">
			<stop  offset="0" style="stop-color:#F7EADF"/>
			<stop  offset="0.2213" style="stop-color:#F3D9D4"/>
			<stop  offset="1" style="stop-color:#C48F8B"/>
		</linearGradient>
		<path fill="url(#SVGID_4_)" d="M73.495,52.75c-0.552,0-1-0.448-1-1c0-9.556-7.774-17.33-17.33-17.33s-17.33,7.774-17.33,17.33
			c0,0.552-0.448,1-1,1s-1-0.448-1-1c0-10.659,8.671-19.33,19.33-19.33s19.33,8.671,19.33,19.33
			C74.495,52.302,74.047,52.75,73.495,52.75z"/>
	</g>
	<g>
		<linearGradient id="SVGID_5_" gradientUnits="userSpaceOnUse" x1="55.708" y1="6.7207" x2="55.708" y2="116.7207">
			<stop  offset="0" style="stop-color:#F7EADF"/>
			<stop  offset="0.2213" style="stop-color:#F3D9D4"/>
			<stop  offset="1" style="stop-color:#C48F8B"/>
		</linearGradient>
		<path fill="url(#SVGID_5_)" d="M80.461,52.75c-0.552,0-1-0.448-1-1c0-13.416-10.915-24.33-24.33-24.33
			c-10.693,0-20.024,6.849-23.221,17.042c-0.166,0.527-0.727,0.818-1.253,0.655c-0.527-0.165-0.82-0.726-0.655-1.253
			C33.461,32.832,43.56,25.42,55.131,25.42c14.519,0,26.33,11.812,26.33,26.33C81.461,52.302,81.013,52.75,80.461,52.75z"/>
	</g>
	<g>
		<linearGradient id="SVGID_6_" gradientUnits="userSpaceOnUse" x1="55.165" y1="6.7207" x2="55.165" y2="116.7207">
			<stop  offset="0" style="stop-color:#F7EADF"/>
			<stop  offset="0.2213" style="stop-color:#F3D9D4"/>
			<stop  offset="1" style="stop-color:#C48F8B"/>
		</linearGradient>
		<path fill="url(#SVGID_6_)" d="M73.495,103.5c-0.552,0-1-0.448-1-1V79.488c0-5.972-7.774-10.83-17.33-10.83
			s-17.33,4.858-17.33,10.83V102.5c0,0.552-0.448,1-1,1s-1-0.448-1-1V79.488c0-7.075,8.671-12.83,19.33-12.83
			s19.33,5.755,19.33,12.83V102.5C74.495,103.052,74.047,103.5,73.495,103.5z"/>
	</g>
	<g>
		<linearGradient id="SVGID_7_" gradientUnits="userSpaceOnUse" x1="57.9126" y1="6.7207" x2="57.9126" y2="116.7207">
			<stop  offset="0" style="stop-color:#F7EADF"/>
			<stop  offset="0.2213" style="stop-color:#F3D9D4"/>
			<stop  offset="1" style="stop-color:#C48F8B"/>
		</linearGradient>
		<path fill="url(#SVGID_7_)" d="M73.495,80.92H42.33c-0.552,0-1-0.448-1-1s0.448-1,1-1h31.165c0.552,0,1,0.448,1,1
			S74.047,80.92,73.495,80.92z"/>
	</g>
	<g>
		<linearGradient id="SVGID_8_" gradientUnits="userSpaceOnUse" x1="55.165" y1="6.7207" x2="55.165" y2="116.7207">
			<stop  offset="0" style="stop-color:#F7EADF"/>
			<stop  offset="0.2213" style="stop-color:#F3D9D4"/>
			<stop  offset="1" style="stop-color:#C48F8B"/>
		</linearGradient>
		<path fill="url(#SVGID_8_)" d="M55.165,103.5c-0.552,0-1-0.448-1-1V79.92c0-0.552,0.448-1,1-1s1,0.448,1,1v22.58
			C56.165,103.052,55.717,103.5,55.165,103.5z"/>
	</g>
	<g>
		<g>
			<linearGradient id="SVGID_9_" gradientUnits="userSpaceOnUse" x1="47.1348" y1="6.7207" x2="47.1348" y2="116.7207">
				<stop  offset="0" style="stop-color:#F7EADF"/>
				<stop  offset="0.2213" style="stop-color:#F3D9D4"/>
				<stop  offset="1" style="stop-color:#C48F8B"/>
			</linearGradient>
			<path fill="url(#SVGID_9_)" d="M47.135,53.75c-0.552,0-1-0.448-1-1V36.324c0-0.552,0.448-1,1-1s1,0.448,1,1V52.75
				C48.135,53.302,47.687,53.75,47.135,53.75z"/>
		</g>
		<g>
			<linearGradient id="SVGID_10_" gradientUnits="userSpaceOnUse" x1="63.1953" y1="6.7207" x2="63.1953" y2="116.7207">
				<stop  offset="0" style="stop-color:#F7EADF"/>
				<stop  offset="0.2213" style="stop-color:#F3D9D4"/>
				<stop  offset="1" style="stop-color:#C48F8B"/>
			</linearGradient>
			<path fill="url(#SVGID_10_)" d="M63.195,53.75c-0.552,0-1-0.448-1-1V36.324c0-0.552,0.448-1,1-1s1,0.448,1,1V52.75
				C64.195,53.302,63.748,53.75,63.195,53.75z"/>
		</g>
	</g>
	<g>
		<g>
			<linearGradient id="SVGID_11_" gradientUnits="userSpaceOnUse" x1="47.1348" y1="6.7207" x2="47.1348" y2="116.7207">
				<stop  offset="0" style="stop-color:#F7EADF"/>
				<stop  offset="0.2213" style="stop-color:#F3D9D4"/>
				<stop  offset="1" style="stop-color:#C48F8B"/>
			</linearGradient>
			<path fill="url(#SVGID_11_)" d="M47.135,80.92c-0.552,0-1-0.448-1-1V69.232c0-0.552,0.448-1,1-1s1,0.448,1,1V79.92
				C48.135,80.472,47.687,80.92,47.135,80.92z"/>
		</g>
		<g>
			<linearGradient id="SVGID_12_" gradientUnits="userSpaceOnUse" x1="63.1953" y1="6.7207" x2="63.1953" y2="116.7207">
				<stop  offset="0" style="stop-color:#F7EADF"/>
				<stop  offset="0.2213" style="stop-color:#F3D9D4"/>
				<stop  offset="1" style="stop-color:#C48F8B"/>
			</linearGradient>
			<path fill="url(#SVGID_12_)" d="M63.195,80.92c-0.552,0-1-0.448-1-1V69.232c0-0.552,0.448-1,1-1s1,0.448,1,1V79.92
				C64.195,80.472,63.748,80.92,63.195,80.92z"/>
		</g>
	</g>
	<g>
		<linearGradient id="SVGID_13_" gradientUnits="userSpaceOnUse" x1="12.9136" y1="6.7207" x2="12.9136" y2="116.7207">
			<stop  offset="0" style="stop-color:#F7EADF"/>
			<stop  offset="0.2213" style="stop-color:#F3D9D4"/>
			<stop  offset="1" style="stop-color:#C48F8B"/>
		</linearGradient>
		<path fill="url(#SVGID_13_)" d="M17.83,66.753H7.997c-0.552,0-1-0.448-1-1v-4.993c0-0.552,0.448-1,1-1h9.833c0.552,0,1,0.448,1,1
			v4.993C18.83,66.306,18.382,66.753,17.83,66.753z M8.997,64.753h7.833v-2.993H8.997V64.753z"/>
	</g>
	<g>
		<linearGradient id="SVGID_14_" gradientUnits="userSpaceOnUse" x1="22.7466" y1="6.7207" x2="22.7466" y2="116.7207">
			<stop  offset="0" style="stop-color:#F7EADF"/>
			<stop  offset="0.2213" style="stop-color:#F3D9D4"/>
			<stop  offset="1" style="stop-color:#C48F8B"/>
		</linearGradient>
		<path fill="url(#SVGID_14_)" d="M27.663,71.746H17.83c-0.552,0-1-0.448-1-1v-4.993c0-0.552,0.448-1,1-1h9.833c0.552,0,1,0.448,1,1
			v4.993C28.663,71.298,28.215,71.746,27.663,71.746z M18.83,69.746h7.833v-2.993H18.83V69.746z"/>
	</g>
	<g>
		<linearGradient id="SVGID_15_" gradientUnits="userSpaceOnUse" x1="96.2466" y1="6.7207" x2="96.2466" y2="116.7207">
			<stop  offset="0" style="stop-color:#F7EADF"/>
			<stop  offset="0.2213" style="stop-color:#F3D9D4"/>
			<stop  offset="1" style="stop-color:#C48F8B"/>
		</linearGradient>
		<path fill="url(#SVGID_15_)" d="M101.163,90.072H91.33c-0.552,0-1-0.448-1-1v-4.993c0-0.552,0.448-1,1-1h9.833
			c0.552,0,1,0.448,1,1v4.993C102.163,89.624,101.715,90.072,101.163,90.072z M92.33,88.072h7.833v-2.993H92.33V88.072z"/>
	</g>
	<g>
		<linearGradient id="SVGID_16_" gradientUnits="userSpaceOnUse" x1="86.4136" y1="6.7207" x2="86.4136" y2="116.7207">
			<stop  offset="0" style="stop-color:#F7EADF"/>
			<stop  offset="0.2213" style="stop-color:#F3D9D4"/>
			<stop  offset="1" style="stop-color:#C48F8B"/>
		</linearGradient>
		<path fill="url(#SVGID_16_)" d="M91.33,95.064h-9.833c-0.552,0-1-0.448-1-1v-4.993c0-0.552,0.448-1,1-1h9.833c0.552,0,1,0.448,1,1
			v4.993C92.33,94.617,91.882,95.064,91.33,95.064z M82.497,93.064h7.833v-2.993h-7.833V93.064z"/>
	</g>
	<g>
		<linearGradient id="SVGID_17_" gradientUnits="userSpaceOnUse" x1="55.165" y1="6.7207" x2="55.165" y2="116.7207">
			<stop  offset="0" style="stop-color:#F7EADF"/>
			<stop  offset="0.2213" style="stop-color:#F3D9D4"/>
			<stop  offset="1" style="stop-color:#C48F8B"/>
		</linearGradient>
		<path fill="url(#SVGID_17_)" d="M71.037,45.585H39.293c-0.552,0-1-0.448-1-1s0.448-1,1-1h31.744c0.552,0,1,0.448,1,1
			S71.589,45.585,71.037,45.585z"/>
	</g>
	<g>
		<linearGradient id="SVGID_18_" gradientUnits="userSpaceOnUse" x1="55.165" y1="6.7207" x2="55.165" y2="116.7207">
			<stop  offset="0" style="stop-color:#F7EADF"/>
			<stop  offset="0.2213" style="stop-color:#F3D9D4"/>
			<stop  offset="1" style="stop-color:#C48F8B"/>
		</linearGradient>
		<path fill="url(#SVGID_18_)" d="M55.165,34.42c-0.552,0-1-0.448-1-1v-5.5c0-0.552,0.448-1,1-1s1,0.448,1,1v5.5
			C56.165,33.972,55.717,34.42,55.165,34.42z"/>
	</g>
	<g>
		<linearGradient id="SVGID_19_" gradientUnits="userSpaceOnUse" x1="69.1943" y1="6.7207" x2="69.1943" y2="116.7207">
			<stop  offset="0" style="stop-color:#F7EADF"/>
			<stop  offset="0.2213" style="stop-color:#F3D9D4"/>
			<stop  offset="1" style="stop-color:#C48F8B"/>
		</linearGradient>
		<path fill="url(#SVGID_19_)" d="M67.351,39.062c-0.239,0-0.478-0.085-0.669-0.258c-0.41-0.37-0.442-1.002-0.072-1.412l3.686-4.085
			c0.37-0.411,1.001-0.444,1.413-0.072c0.41,0.37,0.442,1.002,0.072,1.412l-3.686,4.085C67.896,38.95,67.624,39.062,67.351,39.062z"
			/>
	</g>
	<g>
		<linearGradient id="SVGID_20_" gradientUnits="userSpaceOnUse" x1="41.1367" y1="6.7207" x2="41.1367" y2="116.7207">
			<stop  offset="0" style="stop-color:#F7EADF"/>
			<stop  offset="0.2213" style="stop-color:#F3D9D4"/>
			<stop  offset="1" style="stop-color:#C48F8B"/>
		</linearGradient>
		<path fill="url(#SVGID_20_)" d="M42.979,39.062c-0.273,0-0.545-0.111-0.743-0.33l-3.684-4.085c-0.37-0.41-0.337-1.042,0.073-1.413
			c0.411-0.371,1.042-0.337,1.413,0.073l3.684,4.085c0.37,0.41,0.337,1.042-0.073,1.413C43.457,38.977,43.217,39.062,42.979,39.062z
			"/>
	</g>
	<g>
		<linearGradient id="SVGID_21_" gradientUnits="userSpaceOnUse" x1="55.165" y1="6.7207" x2="55.165" y2="116.7207">
			<stop  offset="0" style="stop-color:#F7EADF"/>
			<stop  offset="0.2213" style="stop-color:#F3D9D4"/>
			<stop  offset="1" style="stop-color:#C48F8B"/>
		</linearGradient>
		<path fill="url(#SVGID_21_)" d="M109.33,110.738H1c-0.552,0-1-0.448-1-1v-7.223c0-0.552,0.448-1,1-1h108.33c0.552,0,1,0.448,1,1
			v7.223C110.33,110.291,109.882,110.738,109.33,110.738z M2,108.738h106.33v-5.223H2V108.738z"/>
	</g>
</g>
<g>
	<linearGradient id="SVGID_22_" gradientUnits="userSpaceOnUse" x1="55.165" y1="6.7207" x2="55.165" y2="116.7207">
		<stop  offset="0" style="stop-color:#F7EADF"/>
		<stop  offset="0.2213" style="stop-color:#F3D9D4"/>
		<stop  offset="1" style="stop-color:#C48F8B"/>
	</linearGradient>
	<path fill="url(#SVGID_22_)" d="M57.913,92.612h-5.495c-0.552,0-1-0.448-1-1s0.448-1,1-1h5.495c0.552,0,1,0.448,1,1
		S58.465,92.612,57.913,92.612z"/>
</g>
</svg>
