<?xml version="1.0" encoding="utf-8"?>
<!-- Generator: Adobe Illustrator 16.2.1, SVG Export Plug-In . SVG Version: 6.00 Build 0)  -->
<!DOCTYPE svg PUBLIC "-//W3C//DTD SVG 1.1//EN" "http://www.w3.org/Graphics/SVG/1.1/DTD/svg11.dtd">
<svg version="1.1" id="Layer_1" xmlns="http://www.w3.org/2000/svg" xmlns:xlink="http://www.w3.org/1999/xlink" x="0px" y="0px"
	 width="105px" height="85.5px" viewBox="0 0 105 85.5" enable-background="new 0 0 105 85.5" xml:space="preserve">
<g>
	<g>
		<linearGradient id="SVGID_1_" gradientUnits="userSpaceOnUse" x1="51.0752" y1="-7.8066" x2="51.0752" y2="90.3463">
			<stop  offset="0" style="stop-color:#F7EADF"/>
			<stop  offset="0.2213" style="stop-color:#F3D9D4"/>
			<stop  offset="1" style="stop-color:#C48F8B"/>
		</linearGradient>
		<path fill="url(#SVGID_1_)" d="M66.76,85.5H35.13c-0.552,0-1-0.447-1-1s0.448-1,1-1h30.825c0.043-0.292,0.065-0.59,0.065-0.89
			c0-3.161-2.373-5.755-5.519-6.034c-0.515-0.046-0.911-0.477-0.912-0.994c-0.009-4.776-3.902-8.662-8.68-8.662
			c-4.777,0-8.671,3.886-8.68,8.662c-0.001,0.515-0.392,0.944-0.904,0.993c-0.69,0.066-1.354,0.256-1.973,0.562
			c-0.497,0.244-1.095,0.041-1.339-0.454s-0.042-1.095,0.454-1.339c0.574-0.284,1.177-0.493,1.799-0.625
			c0.45-5.477,5.056-9.799,10.644-9.799c5.585,0,10.189,4.317,10.643,9.789c3.743,0.74,6.467,3.995,6.467,7.901
			c0,0.738-0.101,1.467-0.298,2.163C67.6,85.203,67.207,85.5,66.76,85.5z"/>
	</g>
	<g>
		<linearGradient id="SVGID_2_" gradientUnits="userSpaceOnUse" x1="26.833" y1="-7.8066" x2="26.833" y2="90.3463">
			<stop  offset="0" style="stop-color:#F7EADF"/>
			<stop  offset="0.2213" style="stop-color:#F3D9D4"/>
			<stop  offset="1" style="stop-color:#C48F8B"/>
		</linearGradient>
		<path fill="url(#SVGID_2_)" d="M26.833,55.66c-5.718,0-10.971-3.037-13.834-7.963C6.001,46.8,2.003,41.05,2.003,31.83
			c0-8.625,2.972-13.815,8.838-15.445c-0.005-0.127-0.008-0.256-0.008-0.385c0-8.822,7.178-16,16-16s16,7.178,16,16
			c0,0.129-0.003,0.258-0.008,0.385c5.866,1.63,8.838,6.82,8.838,15.445c0,9.22-3.999,14.97-10.996,15.867
			C37.804,52.623,32.551,55.66,26.833,55.66z M26.833,2c-7.72,0-14,6.28-14,14c0,0.365,0.028,0.724,0.056,1.082
			c0.038,0.5-0.3,0.951-0.791,1.055c-5.447,1.149-8.095,5.628-8.095,13.693c0,4.872,1.261,13.16,9.708,13.934
			c0.334,0.031,0.63,0.227,0.789,0.522c2.449,4.548,7.174,7.374,12.333,7.374s9.884-2.826,12.333-7.374
			c0.159-0.296,0.455-0.491,0.789-0.522c8.447-0.773,9.708-9.062,9.708-13.934c0-8.065-2.648-12.544-8.095-13.693
			c-0.491-0.104-0.829-0.555-0.791-1.055c0.027-0.358,0.056-0.717,0.056-1.082C40.833,8.28,34.553,2,26.833,2z"/>
	</g>
	<g>
		<linearGradient id="SVGID_3_" gradientUnits="userSpaceOnUse" x1="26.833" y1="-7.8066" x2="26.833" y2="90.3463">
			<stop  offset="0" style="stop-color:#F7EADF"/>
			<stop  offset="0.2213" style="stop-color:#F3D9D4"/>
			<stop  offset="1" style="stop-color:#C48F8B"/>
		</linearGradient>
		<path fill="url(#SVGID_3_)" d="M26.833,66c-0.552,0-1-0.447-1-1V20.66c0-0.553,0.448-1,1-1s1,0.447,1,1V65
			C27.833,65.553,27.385,66,26.833,66z"/>
	</g>
	<g>
		<linearGradient id="SVGID_4_" gradientUnits="userSpaceOnUse" x1="22.5581" y1="-7.8066" x2="22.5581" y2="90.3463">
			<stop  offset="0" style="stop-color:#F7EADF"/>
			<stop  offset="0.2213" style="stop-color:#F3D9D4"/>
			<stop  offset="1" style="stop-color:#C48F8B"/>
		</linearGradient>
		<path fill="url(#SVGID_4_)" d="M26.833,45.83c-0.256,0-0.512-0.098-0.707-0.293l-8.55-8.55c-0.391-0.391-0.391-1.023,0-1.414
			s1.023-0.391,1.414,0l8.55,8.55c0.391,0.391,0.391,1.023,0,1.414C27.345,45.732,27.089,45.83,26.833,45.83z"/>
	</g>
	<g>
		<linearGradient id="SVGID_5_" gradientUnits="userSpaceOnUse" x1="30.9453" y1="-7.8066" x2="30.9453" y2="90.3463">
			<stop  offset="0" style="stop-color:#F7EADF"/>
			<stop  offset="0.2213" style="stop-color:#F3D9D4"/>
			<stop  offset="1" style="stop-color:#C48F8B"/>
		</linearGradient>
		<path fill="url(#SVGID_5_)" d="M27.037,34.5c-0.256,0-0.512-0.098-0.707-0.293c-0.391-0.391-0.391-1.023,0-1.414l7.816-7.816
			c0.391-0.391,1.023-0.391,1.414,0s0.391,1.023,0,1.414l-7.816,7.816C27.549,34.402,27.293,34.5,27.037,34.5z"/>
	</g>
	<g>
		<linearGradient id="SVGID_6_" gradientUnits="userSpaceOnUse" x1="78.3301" y1="-7.8066" x2="78.3301" y2="90.3463">
			<stop  offset="0" style="stop-color:#F7EADF"/>
			<stop  offset="0.2213" style="stop-color:#F3D9D4"/>
			<stop  offset="1" style="stop-color:#C48F8B"/>
		</linearGradient>
		<path fill="url(#SVGID_6_)" d="M78.33,71.32c-5.718,0-10.971-3.037-13.834-7.963C57.499,62.46,53.5,56.71,53.5,47.49
			c0-2.214,0.196-4.222,0.583-5.968c0.119-0.539,0.654-0.878,1.192-0.76c0.54,0.12,0.879,0.654,0.76,1.193
			C55.68,43.56,55.5,45.422,55.5,47.49c0,4.872,1.261,13.16,9.708,13.934c0.334,0.031,0.63,0.227,0.789,0.522
			c2.449,4.548,7.174,7.374,12.333,7.374s9.884-2.826,12.333-7.374c0.159-0.296,0.455-0.491,0.789-0.522
			c8.447-0.773,9.708-9.062,9.708-13.934c0-8.065-2.648-12.544-8.095-13.693c-0.491-0.104-0.829-0.555-0.791-1.055
			c0.027-0.358,0.056-0.717,0.056-1.082c0-7.72-6.28-14-14-14s-14,6.28-14,14c0,0.365,0.028,0.724,0.056,1.082
			c0.038,0.5-0.3,0.951-0.791,1.055c-0.901,0.19-1.737,0.476-2.484,0.848c-0.496,0.246-1.096,0.044-1.341-0.45
			c-0.246-0.494-0.045-1.095,0.449-1.341c0.657-0.327,1.367-0.598,2.118-0.807c-0.005-0.129-0.008-0.258-0.008-0.387
			c0-8.822,7.178-16,16-16s16,7.178,16,16c0,0.129-0.003,0.258-0.008,0.386c5.866,1.629,8.838,6.819,8.838,15.444
			c0,9.22-3.999,14.97-10.996,15.867C89.301,68.283,84.048,71.32,78.33,71.32z"/>
	</g>
	<g>
		<linearGradient id="SVGID_7_" gradientUnits="userSpaceOnUse" x1="78.3301" y1="-7.8066" x2="78.3301" y2="90.3463">
			<stop  offset="0" style="stop-color:#F7EADF"/>
			<stop  offset="0.2213" style="stop-color:#F3D9D4"/>
			<stop  offset="1" style="stop-color:#C48F8B"/>
		</linearGradient>
		<path fill="url(#SVGID_7_)" d="M78.33,85.021c-0.552,0-1-0.447-1-1v-47.7c0-0.553,0.448-1,1-1s1,0.447,1,1v47.7
			C79.33,84.573,78.882,85.021,78.33,85.021z"/>
	</g>
	<g>
		<linearGradient id="SVGID_8_" gradientUnits="userSpaceOnUse" x1="74.0552" y1="-7.8066" x2="74.0552" y2="90.3463">
			<stop  offset="0" style="stop-color:#F7EADF"/>
			<stop  offset="0.2213" style="stop-color:#F3D9D4"/>
			<stop  offset="1" style="stop-color:#C48F8B"/>
		</linearGradient>
		<path fill="url(#SVGID_8_)" d="M78.33,61.49c-0.256,0-0.512-0.098-0.707-0.293l-8.55-8.55c-0.391-0.391-0.391-1.023,0-1.414
			s1.023-0.391,1.414,0l8.55,8.55c0.391,0.391,0.391,1.023,0,1.414C78.842,61.393,78.586,61.49,78.33,61.49z"/>
	</g>
	<g>
		<linearGradient id="SVGID_9_" gradientUnits="userSpaceOnUse" x1="82.4424" y1="-7.8066" x2="82.4424" y2="90.3463">
			<stop  offset="0" style="stop-color:#F7EADF"/>
			<stop  offset="0.2213" style="stop-color:#F3D9D4"/>
			<stop  offset="1" style="stop-color:#C48F8B"/>
		</linearGradient>
		<path fill="url(#SVGID_9_)" d="M78.534,50.16c-0.256,0-0.512-0.098-0.707-0.293c-0.391-0.391-0.391-1.023,0-1.414l7.816-7.816
			c0.391-0.391,1.023-0.391,1.414,0s0.391,1.023,0,1.414l-7.816,7.816C79.046,50.062,78.79,50.16,78.534,50.16z"/>
	</g>
	<g>
		<linearGradient id="SVGID_10_" gradientUnits="userSpaceOnUse" x1="26.875" y1="-7.8066" x2="26.875" y2="90.3463">
			<stop  offset="0" style="stop-color:#F7EADF"/>
			<stop  offset="0.2213" style="stop-color:#F3D9D4"/>
			<stop  offset="1" style="stop-color:#C48F8B"/>
		</linearGradient>
		<path fill="url(#SVGID_10_)" d="M42.69,85.5H11.06c-0.447,0-0.84-0.297-0.962-0.728C9.9,84.074,9.8,83.347,9.8,82.61
			c0-3.862,2.694-7.115,6.396-7.892c0.449-5.477,5.055-9.799,10.644-9.799c5.586,0,10.191,4.319,10.644,9.793
			c0.653,0.132,1.277,0.343,1.864,0.628c2.791,1.309,4.603,4.164,4.603,7.27c0,0.736-0.1,1.464-0.298,2.162
			C43.53,85.203,43.137,85.5,42.69,85.5z M11.866,83.5h30.019c0.044-0.293,0.066-0.59,0.066-0.89c0-2.333-1.36-4.479-3.464-5.465
			c-0.64-0.312-1.329-0.501-2.06-0.57c-0.513-0.048-0.905-0.478-0.906-0.993c-0.009-4.776-3.903-8.662-8.68-8.662
			c-4.777,0-8.671,3.886-8.68,8.662c-0.001,0.513-0.39,0.941-0.899,0.993C14.147,76.89,11.8,79.483,11.8,82.61
			C11.8,82.91,11.822,83.207,11.866,83.5z"/>
	</g>
	<g>
		<linearGradient id="SVGID_11_" gradientUnits="userSpaceOnUse" x1="52.5" y1="-7.8066" x2="52.5" y2="90.3463">
			<stop  offset="0" style="stop-color:#F7EADF"/>
			<stop  offset="0.2213" style="stop-color:#F3D9D4"/>
			<stop  offset="1" style="stop-color:#C48F8B"/>
		</linearGradient>
		<path fill="url(#SVGID_11_)" d="M104,85.5H1c-0.552,0-1-0.447-1-1s0.448-1,1-1h103c0.552,0,1,0.447,1,1S104.552,85.5,104,85.5z"/>
	</g>
	<g>
		<linearGradient id="SVGID_12_" gradientUnits="userSpaceOnUse" x1="56.9062" y1="-7.8066" x2="56.9062" y2="90.3463">
			<stop  offset="0" style="stop-color:#F7EADF"/>
			<stop  offset="0.2213" style="stop-color:#F3D9D4"/>
			<stop  offset="1" style="stop-color:#C48F8B"/>
		</linearGradient>
		<path fill="url(#SVGID_12_)" d="M56.343,39.156c-0.16,0-0.322-0.038-0.472-0.119c-0.487-0.262-0.669-0.867-0.408-1.354
			c0.025-0.046,0.621-1.149,1.246-1.881c0.358-0.42,0.99-0.47,1.41-0.11c0.419,0.358,0.469,0.989,0.11,1.409
			c-0.404,0.474-0.862,1.264-1.004,1.529C57.044,38.966,56.699,39.156,56.343,39.156z"/>
	</g>
</g>
</svg>
