<?xml version="1.0" encoding="UTF-8"?>
<svg width="62px" height="71px" viewBox="0 0 62 71" version="1.1" xmlns="http://www.w3.org/2000/svg" xmlns:xlink="http://www.w3.org/1999/xlink">
    <!-- Generator: Sketch 46.2 (44496) - http://www.bohemiancoding.com/sketch -->
    <title>Group 3</title>
    <desc>Created with Sketch.</desc>
    <defs></defs>
    <g id="Website" stroke="none" stroke-width="1" fill="none" fill-rule="evenodd">
        <g id="Desktop-HD-Copy" transform="translate(-403.000000, -3053.000000)" fill-rule="nonzero" fill="#E99390">
            <g id="Group-3" transform="translate(403.000000, 3053.000000)">
                <path d="M30.8377158,0.176630435 C30.3173224,0.176630435 29.9703934,0.519596942 29.9703934,1.0340467 L29.8836612,5.40686967 C29.8836612,5.8355778 30.2305902,6.26428594 30.7509836,6.26428594 C31.1846448,6.26428594 31.618306,5.92131943 31.618306,5.40686967 L31.7050383,1.0340467 C31.7050383,0.519596942 31.3581093,0.176630435 30.8377158,0.176630435 Z" id="Shape"></path>
                <path d="M37.5160984,4.12074527 C37.1691694,3.77777876 36.648776,3.77777876 36.301847,4.12074527 L33.0927541,7.12170221 C32.7458251,7.46466871 32.7458251,7.97911847 33.0927541,8.32208498 C33.2662186,8.49356823 33.4396831,8.57930986 33.6998798,8.57930986 C33.8733443,8.57930986 34.133541,8.49356823 34.3070055,8.32208498 L37.5160984,5.32112804 C37.8630273,4.97816154 37.8630273,4.46371177 37.5160984,4.12074527 Z" id="Shape"></path>
                <path d="M28.4092131,7.12170221 L25.2868525,4.03500364 C24.9399235,3.69203713 24.4195301,3.69203713 24.0726011,4.03500364 C23.7256721,4.37797015 23.7256721,4.89241991 24.0726011,5.23538642 L27.281694,8.23634335 C27.3684262,8.49356823 27.628623,8.57930986 27.8020874,8.57930986 C28.0622842,8.57930986 28.2357486,8.49356823 28.4092131,8.32208498 C28.7561421,7.97911847 28.7561421,7.46466871 28.4092131,7.12170221 Z" id="Shape"></path>
                <path d="M61.8011257,66.0261998 C61.7143934,65.5974917 61.194,65.2545252 60.7603388,65.4260084 L55.2962077,66.6263912 L50.5259344,47.2487835 C52.7809727,46.219884 54.4288852,43.5618936 55.2094754,39.4462955 C55.9900656,35.1592142 55.6431366,29.8432333 54.342153,24.3557692 C53.4748306,21.0118457 51.0463279,12.8663912 49.5718798,9.77969264 C49.3984153,9.43672613 48.9647541,9.26524287 48.6178251,9.3509845 L33.0060219,13.1236161 C32.5723607,13.2093577 32.3121639,13.5523242 32.3121639,13.9810323 C32.3988962,17.4106974 34.0468087,25.7276352 34.9141311,29.0715587 C37.6028306,39.8750036 43.4138907,47.5917501 48.6178251,47.5917501 L48.9647541,47.5917501 L53.6482951,66.9693577 L48.1841639,68.3412237 C47.7505027,68.4269654 47.4035738,68.9414151 47.5770383,69.3701233 C47.6637705,69.7988314 48.0106995,70.0560563 48.4443607,70.0560563 L48.6178251,70.0560563 L61.194,67.0550993 C61.6276612,66.9693577 61.9745902,66.4549079 61.8011257,66.0261998 Z M34.7406667,20.1544295 C34.3937377,18.0108888 34.0468087,16.0388314 33.9600765,14.5812237 L48.1841639,11.1515587 C48.7912896,12.5234247 49.4851475,14.4954821 50.1790055,16.5532812 L34.7406667,20.1544295 Z M36.4753115,28.6428505 C36.1283825,27.0995012 35.5212568,24.5272524 35.0008634,21.869262 L50.6126667,18.1823721 C51.3932568,20.7546209 52.0871148,23.241128 52.4340437,24.6987357 C53.7350273,29.9289749 54.0819563,34.9877309 53.3013661,39.103329 C52.6075082,42.8759606 51.1330601,45.2767261 49.1382186,45.7911759 C44.8883388,46.905817 39.0772787,39.0175874 36.4753115,28.6428505 Z" id="Shape"></path>
                <path d="M49.5718798,23.4126113 C49.4851475,22.9839032 48.9647541,22.6409367 48.5310929,22.8124199 C48.0974317,22.8981615 47.7505027,23.4126113 47.9239672,23.8413194 C49.8320765,31.3865826 49.4851475,37.8172046 48.7045574,39.7035204 C48.5310929,40.1322285 48.7045574,40.6466783 49.1382186,40.8181615 C49.2249508,40.9039032 49.3984153,40.9039032 49.4851475,40.9039032 C49.8320765,40.9896448 50.1790055,40.7324199 50.2657377,40.3894534 C51.2197923,38.1601711 51.5667213,31.4723242 49.5718798,23.4126113 Z" id="Shape"></path>
                <path d="M28.9296066,13.1236161 L13.3178033,9.3509845 C12.8841421,9.26524287 12.5372131,9.43672613 12.3637486,9.77969264 C10.8893005,12.8663912 8.46079781,21.0118457 7.59347541,24.3557692 C6.20575956,29.7574917 5.94556284,35.1592142 6.72615301,39.4462955 C7.42001093,43.476152 9.0679235,46.219884 11.409694,47.2487835 L6.55268852,66.6263912 L1.08855738,65.3402668 C0.654896175,65.2545252 0.134502732,65.5117501 0.0477704918,65.9404582 C-0.0389617486,66.3691663 0.221234973,66.8836161 0.654896175,66.9693577 L13.231071,69.9703146 L13.4045355,69.9703146 C13.7514645,69.9703146 14.1851257,69.7130898 14.2718579,69.2843816 C14.3585902,68.8556735 14.0983934,68.3412237 13.6647322,68.2554821 L8.20060109,66.9693577 L12.9708743,47.5917501 L13.3178033,47.5917501 C15.8330383,47.5917501 18.3482732,45.9626591 20.776776,42.8759606 C23.4654754,39.4462955 25.6337814,34.5590228 27.0214973,29.0715587 C27.8888197,25.7276352 29.5367322,17.3249558 29.6234645,13.9810323 C29.6234645,13.5523242 29.3632678,13.2093577 28.9296066,13.1236161 Z M25.2868525,28.6428505 C23.9858689,33.8730898 21.9042951,38.5031376 19.3890601,41.7613194 C17.0472896,44.848018 14.6187869,46.3056257 12.6239454,45.7911759 C10.6291038,45.2767261 9.15465574,42.8759606 8.46079781,39.103329 C7.76693989,35.0734725 8.02713661,29.9289749 9.32812022,24.6987357 C9.67504918,23.1553864 10.3689071,20.6688792 11.1494973,18.1823721 L26.7613005,21.869262 C26.2409071,24.5272524 25.7205137,27.0995012 25.2868525,28.6428505 Z M27.1082295,20.1544295 L11.6698907,16.5532812 C12.3637486,14.4954821 13.0576066,12.5234247 13.6647322,11.1515587 L27.8888197,14.5812237 C27.8020874,16.0388314 27.4551585,18.0108888 27.1082295,20.1544295 Z" id="Shape"></path>
                <path d="M13.3178033,22.8124199 C12.8841421,22.7266783 12.3637486,22.9839032 12.2770164,23.4126113 C10.2821749,31.4723242 10.7158361,38.2459127 11.5831585,40.3894534 C11.756623,40.7324199 12.0168197,40.9039032 12.3637486,40.9039032 C12.4504809,40.9039032 12.6239454,40.9039032 12.7106776,40.8181615 C13.1443388,40.6466783 13.4045355,40.1322285 13.1443388,39.7035204 C12.3637486,37.731463 12.0168197,31.3865826 13.924929,23.8413194 C14.0983934,23.4126113 13.8381967,22.9839032 13.3178033,22.8124199 Z" id="Shape"></path>
                <path d="M35.2610601,45.8769175 C33.5264153,45.1909845 31.7050383,45.7054343 30.3173224,47.1630419 C29.0163388,45.7054343 27.1949617,45.1909845 25.3735847,45.8769175 C23.2920109,46.6485922 21.5573661,49.1350993 22.251224,52.3932812 C23.5522077,57.709262 29.796929,60.4529941 30.1438579,60.5387357 C30.2305902,60.6244773 30.3173224,60.6244773 30.4040546,60.6244773 C30.4907869,60.6244773 30.6642514,60.6244773 30.7509836,60.5387357 C31.0111803,60.4529941 37.2559016,57.709262 38.3834208,52.3932812 C39.0772787,49.220841 37.3426339,46.7343338 35.2610601,45.8769175 Z M36.9089727,52.0503146 C36.0416503,55.8229462 31.8785027,58.2237118 30.5775191,58.8239032 C29.3632678,58.2237118 25.113388,55.8229462 24.2460656,52.0503146 C23.6389399,49.6495491 24.8531913,48.0204582 26.1541749,47.5060084 C26.5011038,47.4202668 26.7613005,47.3345252 27.1082295,47.3345252 C28.0622842,47.3345252 29.0163388,47.9347166 29.7101967,49.0493577 C29.8836612,49.3065826 30.1438579,49.4780658 30.4907869,49.4780658 C30.8377158,49.4780658 31.0979126,49.3065826 31.271377,49.0493577 C32.1386995,47.5917501 33.4396831,46.9915587 34.8273989,47.5060084 C36.2151148,48.0204582 37.3426339,49.6495491 36.9089727,52.0503146 Z" id="Shape"></path>
            </g>
        </g>
    </g>
</svg>