<?xml version="1.0" encoding="utf-8"?>
<!-- Generator: Adobe Illustrator 16.2.1, SVG Export Plug-In . SVG Version: 6.00 Build 0)  -->
<!DOCTYPE svg PUBLIC "-//W3C//DTD SVG 1.1//EN" "http://www.w3.org/Graphics/SVG/1.1/DTD/svg11.dtd">
<svg version="1.1" id="Layer_1" xmlns="http://www.w3.org/2000/svg" xmlns:xlink="http://www.w3.org/1999/xlink" x="0px" y="0px"
	 width="99.906px" height="69.092px" viewBox="0 0 99.906 69.092" enable-background="new 0 0 99.906 69.092" xml:space="preserve">
<g>
	<g>
		<linearGradient id="SVGID_1_" gradientUnits="userSpaceOnUse" x1="70.8926" y1="-34.9258" x2="70.8926" y2="75.0742">
			<stop  offset="0" style="stop-color:#F7EADF"/>
			<stop  offset="0.2213" style="stop-color:#F3D9D4"/>
			<stop  offset="1" style="stop-color:#C48F8B"/>
		</linearGradient>
		<path fill="url(#SVGID_1_)" d="M73.705,21.963h-5.624c-0.558,0-1.012-0.454-1.012-1.012c0-0.559,0.454-1.012,1.012-1.012h5.624
			c0.558,0,1.012,0.454,1.012,1.013C74.717,21.51,74.263,21.963,73.705,21.963z"/>
	</g>
	<g>
		<linearGradient id="SVGID_2_" gradientUnits="userSpaceOnUse" x1="49.9531" y1="-34.9258" x2="49.9531" y2="75.0742">
			<stop  offset="0" style="stop-color:#F7EADF"/>
			<stop  offset="0.2213" style="stop-color:#F3D9D4"/>
			<stop  offset="1" style="stop-color:#C48F8B"/>
		</linearGradient>
		<path fill="url(#SVGID_2_)" d="M68.477,41.902H31.43c-1.298,0-2.426-0.88-2.741-2.141l-0.907-3.625
			c-0.212-0.85-0.025-1.733,0.514-2.423c0.54-0.69,1.351-1.087,2.227-1.087h38.86c0.875,0,1.687,0.396,2.227,1.087
			c0.539,0.691,0.726,1.574,0.513,2.424l-0.906,3.625C70.902,41.022,69.775,41.902,68.477,41.902z M29.662,35.251l0.099,0.454
			l0.891,3.566c0.091,0.355,0.411,0.606,0.778,0.606h37.047c0.365,0,0.684-0.247,0.776-0.601l0.996-3.984l-0.263-0.371
			c-0.122-0.16-0.354-0.271-0.602-0.271H30.161L29.662,35.251z"/>
	</g>
	<g>
		<linearGradient id="SVGID_3_" gradientUnits="userSpaceOnUse" x1="49.9531" y1="-34.9258" x2="49.9531" y2="75.0742">
			<stop  offset="0" style="stop-color:#F7EADF"/>
			<stop  offset="0.2213" style="stop-color:#F3D9D4"/>
			<stop  offset="1" style="stop-color:#C48F8B"/>
		</linearGradient>
		<path fill="url(#SVGID_3_)" d="M93.456,69.092h-5.438c-1.557,0-2.824-1.268-2.824-2.825v-8.051H14.712v8.051
			c0,1.558-1.267,2.824-2.824,2.824H6.449c-1.557,0-2.824-1.267-2.824-2.824V32.558c0-1.869,0.643-3.702,1.811-5.161l3.435-4.295
			l-1.073-1.339c-0.435,0.133-0.886,0.2-1.348,0.2H4.637C2.08,21.963,0,19.883,0,17.325c0-2.557,2.08-4.637,4.637-4.637H6.45
			c2.252,0,4.22,1.676,4.578,3.898l0.42,2.613l5.437-14.955C17.808,1.706,20.244,0,22.947,0h54.012c2.703,0,5.139,1.706,6.062,4.245
			L88.458,19.2l0.42-2.613c0.357-2.223,2.326-3.898,4.579-3.898h1.812c2.557,0,4.637,2.08,4.637,4.637
			c0,2.558-2.08,4.638-4.637,4.638h-1.813c-0.462,0-0.913-0.067-1.347-0.2l-1.074,1.339l3.435,4.295
			c1.167,1.458,1.811,3.292,1.811,5.161v33.709C96.281,67.824,95.014,69.092,93.456,69.092z M87.218,58.216v8.051
			c0,0.441,0.359,0.801,0.8,0.801h5.438c0.442,0,0.801-0.359,0.801-0.801V56.61l-1.049,0.646c-1.016,0.628-2.184,0.959-3.377,0.959
			H87.218z M5.649,56.609v9.657c0,0.441,0.359,0.801,0.8,0.801h5.438c0.441,0,0.801-0.359,0.801-0.801v-8.051h-2.613
			c-1.194,0-2.362-0.332-3.377-0.959L5.649,56.609z M72.717,56.191h17.114c2.44,0,4.426-1.985,4.426-4.426V32.558
			c0-1.411-0.485-2.795-1.367-3.896l-4.708-5.887c-0.094-0.116-0.156-0.254-0.182-0.397c-0.133-0.057-0.253-0.146-0.349-0.266
			l-0.119-0.148h-8.577c-0.558,0-1.012-0.454-1.012-1.012c0-0.559,0.454-1.013,1.012-1.013h7.618L81.119,4.938
			c-0.634-1.743-2.306-2.914-4.16-2.914H22.947c-1.855,0-3.526,1.171-4.16,2.914l-5.455,15.001h49.497
			c0.558,0,1.012,0.454,1.012,1.013c0,0.558-0.454,1.012-1.012,1.012H12.374l-0.12,0.149c-0.095,0.119-0.215,0.209-0.348,0.266
			c-0.027,0.144-0.088,0.28-0.182,0.397L7.016,28.66c-0.882,1.102-1.367,2.485-1.367,3.897v19.208c0,2.44,1.986,4.426,4.426,4.426
			h17.114v-4.426c0-1.558,1.267-2.824,2.825-2.824h39.878c1.558,0,2.825,1.267,2.825,2.824V56.191z M29.213,56.191h41.48v-4.426
			c0-0.441-0.359-0.801-0.801-0.801H30.014c-0.442,0-0.801,0.359-0.801,0.801V56.191z M90.119,20.21l-0.233,1.448l0.752-0.938
			C90.452,20.564,90.278,20.394,90.119,20.21z M9.268,20.72l0.752,0.938L9.788,20.21C9.628,20.394,9.455,20.564,9.268,20.72z
			 M93.456,14.712c-1.44,0-2.613,1.173-2.613,2.613c0,1.441,1.172,2.614,2.613,2.614h1.813c1.44,0,2.613-1.173,2.613-2.614
			c0-1.44-1.172-2.613-2.613-2.613H93.456z M4.637,14.712c-1.44,0-2.612,1.173-2.612,2.613c0,1.441,1.172,2.614,2.612,2.614H6.45
			c1.44,0,2.613-1.173,2.613-2.614c0-1.44-1.172-2.613-2.613-2.613H4.637z"/>
	</g>
	<g>
		<linearGradient id="SVGID_4_" gradientUnits="userSpaceOnUse" x1="17.3252" y1="-34.9258" x2="17.3252" y2="75.0742">
			<stop  offset="0" style="stop-color:#F7EADF"/>
			<stop  offset="0.2213" style="stop-color:#F3D9D4"/>
			<stop  offset="1" style="stop-color:#C48F8B"/>
		</linearGradient>
		<path fill="url(#SVGID_4_)" d="M17.326,50.965c-1.558,0-2.825-1.267-2.825-2.824s1.267-2.825,2.825-2.825
			c1.557,0,2.824,1.268,2.824,2.825S18.883,50.965,17.326,50.965z M17.326,47.115c-0.565,0-1.025,0.46-1.025,1.025
			c0,0.564,0.46,1.024,1.025,1.024s1.024-0.46,1.024-1.024C18.35,47.575,17.891,47.115,17.326,47.115z"/>
	</g>
	<g>
		<linearGradient id="SVGID_5_" gradientUnits="userSpaceOnUse" x1="82.5811" y1="-34.9258" x2="82.581" y2="75.0742">
			<stop  offset="0" style="stop-color:#F7EADF"/>
			<stop  offset="0.2213" style="stop-color:#F3D9D4"/>
			<stop  offset="1" style="stop-color:#C48F8B"/>
		</linearGradient>
		<path fill="url(#SVGID_5_)" d="M82.581,50.965c-1.557,0-2.824-1.267-2.824-2.824s1.267-2.825,2.824-2.825
			c1.558,0,2.825,1.268,2.825,2.825S84.138,50.965,82.581,50.965z M82.581,47.115c-0.565,0-1.024,0.46-1.024,1.025
			c0,0.564,0.459,1.024,1.024,1.024s1.025-0.46,1.025-1.024C83.605,47.575,83.146,47.115,82.581,47.115z"/>
	</g>
	<g>
		<linearGradient id="SVGID_6_" gradientUnits="userSpaceOnUse" x1="16.4189" y1="-34.9258" x2="16.4189" y2="75.0742">
			<stop  offset="0" style="stop-color:#F7EADF"/>
			<stop  offset="0.2213" style="stop-color:#F3D9D4"/>
			<stop  offset="1" style="stop-color:#C48F8B"/>
		</linearGradient>
		<path fill="url(#SVGID_6_)" d="M16.419,41.902c-3.057,0-5.543-2.487-5.543-5.544s2.486-5.544,5.543-5.544s5.543,2.487,5.543,5.544
			S19.476,41.902,16.419,41.902z M16.419,32.838c-1.94,0-3.52,1.579-3.52,3.521c0,1.94,1.579,3.52,3.52,3.52
			c1.941,0,3.52-1.579,3.52-3.52C19.939,34.417,18.36,32.838,16.419,32.838z"/>
	</g>
	<g>
		<linearGradient id="SVGID_7_" gradientUnits="userSpaceOnUse" x1="83.4868" y1="-34.9258" x2="83.4868" y2="75.0742">
			<stop  offset="0" style="stop-color:#F7EADF"/>
			<stop  offset="0.2213" style="stop-color:#F3D9D4"/>
			<stop  offset="1" style="stop-color:#C48F8B"/>
		</linearGradient>
		<path fill="url(#SVGID_7_)" d="M83.487,41.902c-3.057,0-5.543-2.487-5.543-5.544s2.487-5.544,5.543-5.544s5.543,2.487,5.543,5.544
			S86.543,41.902,83.487,41.902z M83.487,32.838c-1.94,0-3.52,1.579-3.52,3.521c0,1.94,1.579,3.52,3.52,3.52
			c1.941,0,3.52-1.579,3.52-3.52C87.007,34.417,85.428,32.838,83.487,32.838z"/>
	</g>
</g>
</svg>
